<?xml version="1.0" encoding="utf-8"?>
<!-- Generator: Adobe Illustrator 16.0.0, SVG Export Plug-In . SVG Version: 6.00 Build 0)  -->
<!DOCTYPE svg PUBLIC "-//W3C//DTD SVG 1.1//EN" "http://www.w3.org/Graphics/SVG/1.1/DTD/svg11.dtd">
<svg version="1.1" id="Layer_1" xmlns="http://www.w3.org/2000/svg" xmlns:xlink="http://www.w3.org/1999/xlink" x="0px" y="0px"
	 width="1024px" height="150px" viewBox="0 0 1024 150" enable-background="new 0 0 1024 150" xml:space="preserve">
<text transform="matrix(1 0 0 1 153 117)" font-family="'DaunPenh'" font-size="135">University of Calcutta</text>
<path d="M74.981,33.567c-22.92,0-41.5,18.58-41.5,41.5c0,22.92,18.58,41.5,41.5,41.5c22.92,0,41.5-18.58,41.5-41.5
	C116.481,52.147,97.902,33.567,74.981,33.567z M110.59,84.368l-6.35-0.321l-0.313,1.33l7.071,4.598l0,0l-8.281-1.819l-0.581,1.205
	l4.414,4.51l-5.863-2.052l-0.34,0.38l3.973,5.089l-5.743-2.726l-0.799,1.108l4.772,6.951l0,0l-6.954-4.85L94.6,98.663l2.352,5.857
	l-4.631-4.141l-0.46,0.221l1.722,6.223l-4.262-4.718l-1.163,0.718l1.75,8.25l0,0l-4.569-7.141l-1.263,0.441l-0.068,6.311
	l-2.696-5.597l-0.507,0.026l-0.791,6.409l-2.132-5.988l-1.351,0.218l-1.539,8.291l0,0l-1.488-8.346l-1.336-0.075l-2.477,5.805
	l-0.349-6.203l-0.481-0.169l-3.181,5.617L66,104.325l-1.333-0.315l-4.593,7.071l0,0l1.817-8.28l-1.204-0.58l-4.509,4.415l2.05-5.864
	l-0.38-0.339l-5.088,3.969l2.726-5.739l-1.11-0.803l-6.95,4.775l0,0l4.847-6.953l-0.891-0.998l-5.854,2.354l4.138-4.634l-0.221-0.46
	l-6.221,1.723l4.717-4.261l-0.719-1.167l-8.249,1.753l0,0l7.139-4.569l-0.438-1.264l-6.311-0.065l5.596-2.697l-0.029-0.508
	l-6.406-0.791l5.987-2.131l-0.217-1.353l-8.292-1.538l0,0l8.344-1.489l0.078-1.335l-5.804-2.476l6.202-0.35l0.167-0.481
	l-5.614-3.181l6.347,0.32l0.316-1.332l-7.072-4.593l0,0l8.279,1.817l0.581-1.203l-4.413-4.51l5.863,2.049l0.338-0.379l-3.968-5.089
	l5.741,2.727l0.801-1.11l-4.775-6.95l0,0l6.953,4.847l0.997-0.89l-2.352-5.854l4.632,4.137l0.459-0.221l-1.72-6.221l4.261,4.716
	l1.166-0.719l-1.752-8.249l0,0l4.569,7.138l1.263-0.44l0.066-6.308l2.697,5.594l0.508-0.029l0.791-6.404l2.131,5.987l1.354-0.218
	l1.537-8.291l0,0l1.488,8.342l1.334,0.077l2.477-5.803l0.351,6.201l0.479,0.167l3.182-5.613l-0.321,6.346l1.329,0.314l4.597-7.07
	l0,0l-1.817,8.281l1.202,0.58l4.512-4.414l-2.052,5.864l0.38,0.34l5.088-3.975l-2.726,5.744l1.108,0.799l6.952-4.773l0,0
	l-4.849,6.956l0.891,0.994l5.856-2.349l-4.14,4.631l0.221,0.459l6.223-1.725l-4.716,4.264l0.718,1.163l8.25-1.752l0,0l-7.143,4.571
	l0.443,1.262l6.308,0.068l-5.595,2.696l0.029,0.506l6.409,0.79l-5.99,2.135l0.218,1.349l8.292,1.54l0,0l-8.349,1.488l-0.072,1.335
	l5.804,2.479l-6.203,0.35l-0.168,0.48L110.59,84.368z"/>
<polygon fill="none" points="111.342,80.357 105.54,77.88 105.612,76.545 113.96,75.056 113.96,75.056 105.668,73.515 
	105.451,72.167 111.44,70.033 105.031,69.243 105.002,68.736 110.598,66.04 104.29,65.972 103.847,64.71 110.989,60.139 
	110.989,60.139 102.74,61.891 102.022,60.728 106.738,56.463 100.514,58.188 100.294,57.729 104.434,53.097 98.577,55.446 
	97.686,54.451 102.535,47.495 102.535,47.495 95.584,52.269 94.475,51.471 97.201,45.726 92.112,49.701 91.732,49.361 
	93.784,43.498 89.271,47.911 88.07,47.332 89.886,39.05 89.886,39.05 85.29,46.12 83.961,45.807 84.283,39.46 81.101,45.073 
	80.621,44.906 80.271,38.705 77.793,44.508 76.459,44.431 74.971,36.087 74.971,36.087 73.433,44.379 72.08,44.597 69.948,38.61 
	69.158,45.015 68.65,45.043 65.953,39.449 65.885,45.757 64.624,46.197 60.055,39.059 60.055,39.059 61.807,47.308 60.641,48.027 
	56.38,43.311 58.1,49.531 57.642,49.751 53.009,45.614 55.361,51.469 54.364,52.358 47.411,47.512 47.411,47.512 52.186,54.462 
	51.385,55.573 45.644,52.846 49.612,57.934 49.274,58.313 43.411,56.265 47.824,60.774 47.244,61.977 38.965,60.16 38.965,60.16 
	46.037,64.754 45.72,66.086 39.374,65.766 44.988,68.946 44.82,69.427 38.619,69.777 44.421,72.253 44.345,73.589 36.001,75.077 
	36.001,75.077 44.293,76.615 44.51,77.968 38.523,80.099 44.929,80.89 44.957,81.397 39.362,84.096 45.672,84.161 46.111,85.424 
	38.973,89.993 38.973,89.993 47.222,88.24 47.94,89.408 43.224,93.668 49.445,91.946 49.665,92.405 45.528,97.038 51.382,94.686 
	52.272,95.684 47.426,102.636 47.426,102.636 54.375,97.861 55.486,98.664 52.76,104.403 57.848,100.435 58.228,100.772 
	56.178,106.638 60.687,102.223 61.891,102.803 60.073,111.082 60.073,111.082 64.667,104.012 66,104.326 65.679,110.675 
	68.859,105.058 69.34,105.228 69.689,111.43 72.167,105.625 73.503,105.7 74.991,114.045 74.991,114.045 76.53,105.755 
	77.88,105.537 80.014,111.524 80.804,105.117 81.312,105.09 84.007,110.687 84.076,104.376 85.338,103.934 89.907,111.073 
	89.907,111.073 88.157,102.825 89.319,102.107 93.583,106.824 91.86,100.602 92.32,100.381 96.951,104.521 94.6,98.665 
	95.596,97.772 102.55,102.621 102.55,102.621 97.777,95.67 98.577,94.563 104.32,97.288 100.346,92.198 100.687,91.818 
	106.55,93.87 102.137,89.361 102.717,88.155 110.998,89.975 110.998,89.975 103.927,85.377 104.24,84.047 110.59,84.368 
	104.973,81.187 105.14,80.706 "/>
<circle id="Innerster_Ring" fill="none" stroke="#000000" stroke-width="3.5" cx="74.975" cy="75.068" r="10.513"/>
<path id="Innerer_Ring" fill="none" stroke="#000000" stroke-width="3.5" d="M122.163,75.067c0,26.058-21.122,47.18-47.18,47.18
	c-26.059,0-47.181-21.122-47.181-47.18c0-26.057,21.122-47.18,47.181-47.18C101.04,27.888,122.163,49.011,122.163,75.067z"/>
<g>
	<path id="Innerer_Ring_1_" fill="none" d="M136.168,79.346c-2.365,33.791-31.673,59.268-65.466,56.903
		c-33.792-2.362-59.268-31.67-56.905-65.461c2.364-33.79,31.669-59.269,65.463-56.906C113.052,16.247,138.53,45.554,136.168,79.346z
		"/>
	<path d="M15.356,88.183c-0.093,0.05-0.168,0.082-0.229,0.092c-0.059,0.012-0.109,0.003-0.144-0.027
		c-0.037-0.032-0.067-0.088-0.088-0.169c-0.022-0.081-0.043-0.191-0.065-0.328c-0.021-0.138-0.035-0.248-0.041-0.331
		c-0.007-0.085-0.006-0.148,0.003-0.193c0.01-0.045,0.026-0.08,0.05-0.104c0.023-0.025,0.053-0.049,0.091-0.071l1.987-1.069
		l-0.561-3.591l-2.186-0.384c-0.042-0.008-0.08-0.019-0.112-0.036c-0.032-0.019-0.062-0.047-0.089-0.087
		c-0.026-0.038-0.051-0.096-0.071-0.174c-0.021-0.076-0.041-0.176-0.061-0.301c-0.02-0.129-0.031-0.235-0.032-0.318
		c-0.001-0.084,0.011-0.146,0.036-0.184c0.027-0.038,0.069-0.062,0.129-0.069c0.061-0.007,0.143-0.001,0.247,0.021l8.474,1.645
		c0.051,0.011,0.095,0.028,0.132,0.051c0.035,0.023,0.066,0.063,0.092,0.114c0.026,0.053,0.05,0.123,0.071,0.209
		s0.041,0.194,0.061,0.329c0.022,0.141,0.038,0.26,0.047,0.355c0.007,0.093,0.007,0.173-0.002,0.233
		c-0.009,0.06-0.027,0.109-0.055,0.145c-0.029,0.037-0.065,0.068-0.112,0.093L15.356,88.183z M21.856,83.36l0-0.008l-4.536-0.815
		l0.468,3.002L21.856,83.36z"/>
	<path d="M21.831,95.563c-0.721,0.229-1.381,0.334-1.978,0.318c-0.597-0.015-1.128-0.145-1.594-0.387
		c-0.465-0.242-0.868-0.594-1.205-1.056c-0.338-0.46-0.62-1.047-0.844-1.759l-0.555-1.767c-0.03-0.099-0.028-0.202,0.011-0.312
		c0.04-0.11,0.143-0.19,0.31-0.242l7.436-2.339c0.167-0.052,0.297-0.046,0.392,0.022c0.094,0.067,0.157,0.149,0.188,0.249
		l0.594,1.888c0.227,0.722,0.325,1.362,0.296,1.917c-0.031,0.559-0.168,1.059-0.411,1.506c-0.245,0.448-0.588,0.838-1.032,1.168
		C22.992,95.102,22.458,95.365,21.831,95.563z M21.419,94.411c0.451-0.142,0.853-0.329,1.207-0.563
		c0.354-0.233,0.634-0.514,0.844-0.842c0.208-0.327,0.334-0.699,0.379-1.114c0.043-0.417-0.025-0.912-0.205-1.486l-0.355-1.128
		l-6.489,2.039l0.358,1.141c0.167,0.531,0.376,0.961,0.624,1.283c0.249,0.323,0.548,0.563,0.901,0.723
		c0.351,0.158,0.753,0.234,1.206,0.226C20.341,94.683,20.852,94.589,21.419,94.411z"/>
	<path d="M20.224,102.279c-0.051,0.006-0.099,0.001-0.142-0.013c-0.042-0.015-0.083-0.044-0.124-0.087
		c-0.041-0.043-0.083-0.103-0.127-0.178c-0.044-0.076-0.093-0.174-0.152-0.292c-0.042-0.088-0.08-0.168-0.111-0.235
		c-0.03-0.068-0.052-0.128-0.068-0.18s-0.027-0.099-0.033-0.138c-0.007-0.038-0.008-0.075-0.003-0.107
		c0.004-0.032,0.014-0.061,0.031-0.086c0.016-0.025,0.037-0.052,0.063-0.079l6.071-6.102c0.073-0.075,0.137-0.128,0.19-0.155
		c0.054-0.029,0.104-0.03,0.151-0.009c0.045,0.023,0.092,0.071,0.14,0.15c0.047,0.076,0.104,0.184,0.171,0.321
		c0.055,0.113,0.095,0.206,0.122,0.276s0.04,0.127,0.041,0.172c0.001,0.044-0.008,0.082-0.024,0.112
		c-0.018,0.031-0.042,0.064-0.076,0.101l-5.536,5.454l0.003,0.007l7.673-0.995c0.051-0.01,0.093-0.012,0.13-0.01
		c0.036,0.002,0.072,0.02,0.108,0.052c0.036,0.032,0.074,0.084,0.115,0.154c0.042,0.07,0.093,0.165,0.15,0.287
		c0.061,0.126,0.104,0.228,0.129,0.306c0.026,0.076,0.03,0.136,0.014,0.176c-0.015,0.041-0.052,0.071-0.11,0.092
		c-0.057,0.021-0.139,0.035-0.243,0.046L20.224,102.279z"/>
	<path d="M26.037,111.532c-0.063,0.084-0.119,0.145-0.168,0.179c-0.051,0.034-0.098,0.047-0.144,0.032
		c-0.047-0.012-0.095-0.051-0.149-0.114c-0.053-0.064-0.118-0.155-0.195-0.272c-0.076-0.117-0.134-0.213-0.175-0.285
		c-0.039-0.073-0.064-0.134-0.075-0.177c-0.01-0.045-0.01-0.082,0.002-0.113c0.011-0.031,0.029-0.066,0.053-0.104l1.369-1.793
		l-1.994-3.039l-2.149,0.554c-0.041,0.009-0.08,0.013-0.117,0.01c-0.036-0.003-0.074-0.016-0.114-0.041
		c-0.042-0.024-0.086-0.067-0.137-0.128c-0.05-0.061-0.111-0.146-0.18-0.251c-0.072-0.109-0.125-0.201-0.162-0.276
		c-0.035-0.077-0.051-0.136-0.042-0.183c0.009-0.045,0.038-0.084,0.09-0.113c0.051-0.031,0.13-0.061,0.232-0.084l8.396-2
		c0.051-0.012,0.098-0.014,0.141-0.008c0.042,0.007,0.086,0.03,0.133,0.066c0.046,0.038,0.095,0.091,0.149,0.16
		c0.054,0.07,0.118,0.161,0.193,0.274c0.079,0.121,0.142,0.223,0.188,0.305c0.046,0.084,0.077,0.153,0.095,0.214
		c0.016,0.058,0.02,0.111,0.009,0.155c-0.01,0.045-0.031,0.089-0.063,0.131L26.037,111.532z M29.967,104.457l-0.003-0.007
		l-4.469,1.13l1.666,2.541L29.967,104.457z"/>
	<path d="M31.917,118.19c-0.067,0.06-0.134,0.1-0.201,0.119c-0.067,0.02-0.132,0.025-0.195,0.016
		c-0.062-0.011-0.122-0.031-0.175-0.064c-0.054-0.032-0.1-0.071-0.141-0.116l-0.256-0.286c-0.081-0.091-0.142-0.177-0.185-0.261
		c-0.042-0.084-0.066-0.179-0.072-0.282c-0.006-0.104,0.006-0.225,0.035-0.36c0.03-0.134,0.079-0.297,0.148-0.48l1.917-5.306
		c0.097-0.276,0.203-0.561,0.318-0.853c0.114-0.294,0.23-0.574,0.346-0.843l-0.008-0.01c-0.236,0.224-0.479,0.449-0.727,0.679
		c-0.249,0.229-0.497,0.455-0.745,0.677l-3.925,3.525c-0.023,0.021-0.052,0.035-0.086,0.039c-0.035,0.007-0.071-0.003-0.115-0.025
		c-0.042-0.023-0.091-0.06-0.149-0.107c-0.058-0.046-0.125-0.111-0.201-0.197c-0.076-0.085-0.134-0.157-0.175-0.22
		c-0.041-0.063-0.071-0.113-0.086-0.156c-0.018-0.042-0.021-0.081-0.011-0.113c0.01-0.034,0.025-0.062,0.048-0.082l6-5.39
		c0.133-0.121,0.264-0.168,0.389-0.144c0.124,0.025,0.228,0.083,0.309,0.173l0.381,0.426c0.09,0.099,0.157,0.191,0.201,0.273
		c0.043,0.083,0.071,0.169,0.08,0.257c0.011,0.089,0.003,0.188-0.021,0.299c-0.024,0.112-0.063,0.242-0.117,0.391l-1.486,4.089
		c-0.089,0.251-0.177,0.494-0.266,0.729c-0.087,0.235-0.174,0.468-0.262,0.691c-0.088,0.227-0.174,0.448-0.259,0.667
		c-0.084,0.22-0.17,0.439-0.258,0.658l0.005,0.005c0.257-0.244,0.531-0.496,0.815-0.755c0.284-0.258,0.561-0.507,0.825-0.745
		l3.528-3.168c0.023-0.021,0.051-0.033,0.084-0.038c0.034-0.004,0.072,0.005,0.117,0.025c0.045,0.02,0.095,0.054,0.151,0.103
		c0.057,0.05,0.125,0.118,0.203,0.206c0.07,0.077,0.127,0.148,0.171,0.212c0.043,0.063,0.073,0.115,0.087,0.161
		c0.013,0.046,0.016,0.085,0.009,0.115c-0.007,0.032-0.023,0.06-0.046,0.081L31.917,118.19z"/>
	<path d="M39.159,123.443c-0.046,0.055-0.089,0.102-0.126,0.141s-0.073,0.07-0.109,0.094c-0.034,0.023-0.07,0.042-0.103,0.055
		c-0.034,0.012-0.083,0.022-0.146,0.028c-0.063,0.006-0.18-0.002-0.35-0.023s-0.365-0.066-0.585-0.134
		c-0.221-0.07-0.457-0.17-0.708-0.299c-0.253-0.131-0.505-0.3-0.757-0.51c-0.437-0.362-0.77-0.764-1-1.2
		c-0.232-0.438-0.352-0.901-0.364-1.391c-0.011-0.49,0.089-0.999,0.303-1.526c0.212-0.528,0.545-1.064,0.996-1.609
		c0.464-0.557,0.949-0.993,1.455-1.313c0.506-0.316,1.015-0.519,1.527-0.605c0.512-0.088,1.014-0.06,1.508,0.082
		c0.495,0.142,0.961,0.395,1.402,0.761c0.194,0.16,0.368,0.335,0.522,0.523c0.154,0.189,0.285,0.376,0.395,0.562
		c0.11,0.185,0.195,0.363,0.256,0.538c0.062,0.174,0.095,0.302,0.103,0.388s0.009,0.147,0.002,0.183s-0.019,0.073-0.038,0.112
		c-0.019,0.04-0.043,0.086-0.075,0.134c-0.032,0.05-0.073,0.105-0.125,0.168c-0.058,0.07-0.111,0.125-0.158,0.168
		c-0.046,0.043-0.092,0.074-0.133,0.097c-0.042,0.021-0.077,0.03-0.11,0.03c-0.032,0-0.062-0.012-0.09-0.034
		c-0.05-0.041-0.09-0.132-0.12-0.271c-0.031-0.139-0.081-0.308-0.152-0.502c-0.069-0.195-0.174-0.409-0.316-0.641
		c-0.14-0.231-0.348-0.462-0.623-0.689c-0.3-0.248-0.623-0.415-0.967-0.5c-0.344-0.084-0.701-0.083-1.067,0.005
		c-0.366,0.088-0.737,0.258-1.11,0.514s-0.738,0.597-1.095,1.026c-0.355,0.426-0.623,0.841-0.801,1.244
		c-0.18,0.404-0.276,0.788-0.285,1.151c-0.011,0.363,0.063,0.705,0.22,1.026c0.157,0.32,0.396,0.613,0.711,0.876
		c0.268,0.222,0.53,0.384,0.785,0.483c0.255,0.101,0.486,0.17,0.695,0.204c0.21,0.035,0.386,0.059,0.531,0.069
		c0.146,0.009,0.244,0.034,0.297,0.078c0.025,0.021,0.041,0.043,0.05,0.068s0.007,0.057-0.008,0.094
		c-0.014,0.037-0.04,0.086-0.078,0.141C39.277,123.296,39.226,123.363,39.159,123.443z"/>
	<path d="M44.615,127.884c-0.044,0.068-0.086,0.126-0.127,0.173c-0.04,0.047-0.08,0.081-0.121,0.104
		c-0.041,0.022-0.078,0.032-0.112,0.031c-0.035,0-0.066-0.01-0.097-0.029l-3.541-2.25c-0.087-0.056-0.151-0.138-0.191-0.246
		c-0.042-0.108-0.013-0.236,0.08-0.385l4.181-6.579c0.094-0.148,0.199-0.227,0.314-0.235c0.115-0.01,0.217,0.014,0.304,0.07
		l3.501,2.223c0.031,0.02,0.052,0.046,0.068,0.076c0.015,0.03,0.019,0.067,0.012,0.112c-0.006,0.044-0.021,0.094-0.043,0.152
		c-0.023,0.058-0.06,0.125-0.107,0.199c-0.044,0.069-0.087,0.126-0.129,0.171c-0.042,0.046-0.082,0.08-0.116,0.103
		c-0.036,0.023-0.071,0.033-0.106,0.033c-0.034-0.001-0.067-0.01-0.097-0.03l-2.885-1.834l-1.471,2.314l2.474,1.572
		c0.03,0.019,0.053,0.045,0.067,0.077s0.02,0.071,0.018,0.112c-0.002,0.042-0.017,0.092-0.043,0.149s-0.063,0.123-0.108,0.194
		c-0.043,0.069-0.084,0.125-0.124,0.171c-0.039,0.045-0.077,0.075-0.113,0.095c-0.037,0.02-0.071,0.029-0.104,0.027
		c-0.033-0.004-0.065-0.014-0.096-0.033l-2.473-1.571l-1.677,2.64l2.924,1.857c0.03,0.02,0.053,0.045,0.069,0.074
		c0.015,0.031,0.021,0.07,0.02,0.113c-0.001,0.042-0.014,0.094-0.04,0.15S44.663,127.808,44.615,127.884z"/>
	<path d="M55.644,133.296c-0.014,0.033-0.035,0.06-0.063,0.076c-0.028,0.018-0.067,0.025-0.114,0.021
		c-0.049-0.003-0.11-0.015-0.18-0.031c-0.071-0.017-0.159-0.049-0.266-0.093c-0.098-0.041-0.179-0.082-0.247-0.122
		c-0.065-0.039-0.116-0.075-0.151-0.106c-0.034-0.032-0.055-0.064-0.063-0.096c-0.006-0.032-0.002-0.065,0.01-0.098l2.951-7.018
		l-0.011-0.006l-5.804,5.854c-0.025,0.023-0.052,0.042-0.083,0.053c-0.032,0.011-0.073,0.013-0.123,0.011
		c-0.05-0.004-0.107-0.016-0.169-0.034c-0.063-0.019-0.135-0.047-0.218-0.081c-0.088-0.036-0.16-0.072-0.219-0.107
		c-0.059-0.034-0.106-0.067-0.141-0.1c-0.036-0.03-0.06-0.063-0.073-0.092c-0.014-0.03-0.021-0.061-0.018-0.089l0.249-8.189
		l-0.007-0.003l-2.951,7.018c-0.013,0.033-0.034,0.059-0.063,0.076c-0.027,0.018-0.065,0.025-0.113,0.021
		c-0.05-0.004-0.111-0.013-0.183-0.032c-0.072-0.019-0.163-0.05-0.27-0.094c-0.103-0.044-0.186-0.085-0.25-0.124
		c-0.064-0.039-0.113-0.074-0.149-0.106c-0.033-0.03-0.053-0.063-0.057-0.094c-0.005-0.03,0-0.063,0.013-0.097L50,122.207
		c0.073-0.175,0.173-0.279,0.297-0.316c0.124-0.036,0.243-0.03,0.357,0.018l0.658,0.277c0.134,0.056,0.247,0.117,0.338,0.186
		c0.091,0.067,0.163,0.145,0.215,0.23c0.053,0.086,0.088,0.18,0.103,0.285c0.016,0.104,0.02,0.22,0.011,0.349l-0.15,6.803
		l0.031,0.013l4.842-4.808c0.1-0.105,0.194-0.189,0.286-0.254c0.093-0.064,0.181-0.109,0.269-0.134
		c0.087-0.024,0.175-0.029,0.265-0.02c0.091,0.011,0.187,0.037,0.294,0.082l0.688,0.29c0.063,0.028,0.119,0.062,0.168,0.104
		c0.05,0.044,0.086,0.094,0.109,0.149c0.023,0.056,0.034,0.12,0.034,0.191s-0.018,0.15-0.054,0.237L55.644,133.296z"/>
	<path d="M63.629,134.915c-0.019,0.078-0.039,0.146-0.062,0.204c-0.022,0.057-0.05,0.103-0.081,0.137
		c-0.03,0.033-0.063,0.058-0.095,0.068s-0.067,0.012-0.102,0.004l-4.086-0.954c-0.101-0.023-0.188-0.08-0.261-0.169
		c-0.074-0.089-0.092-0.219-0.052-0.391l1.775-7.59c0.04-0.172,0.112-0.28,0.218-0.328c0.105-0.046,0.209-0.058,0.31-0.034
		l4.04,0.944c0.034,0.009,0.064,0.025,0.089,0.05c0.024,0.023,0.041,0.058,0.049,0.102c0.009,0.043,0.01,0.095,0.009,0.157
		c-0.002,0.063-0.013,0.136-0.034,0.224c-0.019,0.079-0.041,0.148-0.065,0.203c-0.025,0.057-0.051,0.102-0.077,0.135
		c-0.026,0.033-0.055,0.055-0.088,0.066c-0.032,0.01-0.066,0.011-0.102,0.004l-3.328-0.778l-0.625,2.671l2.855,0.667
		c0.034,0.009,0.064,0.025,0.089,0.052c0.023,0.026,0.042,0.059,0.053,0.098c0.011,0.04,0.014,0.093,0.009,0.154
		c-0.007,0.063-0.019,0.137-0.038,0.22c-0.019,0.08-0.039,0.147-0.061,0.201c-0.022,0.055-0.047,0.097-0.075,0.128
		c-0.028,0.03-0.058,0.051-0.09,0.06s-0.065,0.009-0.101,0l-2.855-0.667l-0.712,3.045l3.374,0.788
		c0.035,0.01,0.065,0.025,0.09,0.051c0.023,0.024,0.043,0.056,0.056,0.1c0.013,0.043,0.017,0.093,0.011,0.154
		C63.662,134.752,63.649,134.827,63.629,134.915z"/>
	<path d="M72.815,135.97c-0.009,0.09-0.031,0.164-0.067,0.223c-0.035,0.061-0.08,0.109-0.132,0.146
		c-0.052,0.034-0.11,0.06-0.172,0.072c-0.062,0.012-0.123,0.016-0.183,0.01l-0.382-0.033c-0.121-0.012-0.225-0.033-0.313-0.065
		c-0.089-0.033-0.171-0.087-0.245-0.157c-0.076-0.072-0.15-0.169-0.22-0.288c-0.072-0.119-0.145-0.271-0.22-0.454l-2.212-5.189
		c-0.114-0.269-0.232-0.549-0.348-0.842c-0.115-0.294-0.224-0.578-0.32-0.853l-0.014-0.002c-0.019,0.324-0.043,0.654-0.068,0.992
		c-0.027,0.338-0.054,0.671-0.083,1.003l-0.471,5.255c-0.003,0.03-0.015,0.061-0.036,0.089c-0.021,0.027-0.056,0.047-0.103,0.058
		c-0.046,0.011-0.106,0.02-0.181,0.025c-0.074,0.005-0.168,0.002-0.282-0.008c-0.113-0.012-0.207-0.026-0.278-0.043
		c-0.072-0.019-0.13-0.037-0.171-0.057c-0.041-0.019-0.071-0.044-0.086-0.073c-0.016-0.031-0.023-0.063-0.02-0.094l0.72-8.032
		c0.017-0.18,0.078-0.303,0.187-0.37c0.109-0.068,0.224-0.096,0.344-0.085l0.569,0.052c0.134,0.012,0.246,0.033,0.334,0.064
		c0.089,0.03,0.166,0.073,0.233,0.133c0.067,0.058,0.131,0.136,0.189,0.235c0.059,0.097,0.12,0.22,0.18,0.364l1.699,4.005
		c0.105,0.245,0.206,0.482,0.302,0.716c0.098,0.232,0.191,0.461,0.279,0.687c0.088,0.226,0.177,0.446,0.265,0.666
		c0.088,0.217,0.174,0.438,0.26,0.656l0.007,0.001c0.022-0.355,0.05-0.725,0.082-1.108c0.031-0.384,0.064-0.752,0.096-1.106
		l0.423-4.723c0.002-0.032,0.014-0.061,0.036-0.087c0.021-0.024,0.055-0.046,0.102-0.062s0.107-0.025,0.182-0.027
		c0.073-0.004,0.171,0.001,0.289,0.011c0.104,0.011,0.193,0.022,0.269,0.037c0.075,0.016,0.134,0.035,0.174,0.06
		c0.041,0.025,0.069,0.051,0.085,0.078c0.016,0.03,0.024,0.059,0.021,0.092L72.815,135.97z"/>
	<path d="M80.954,127.933c0.005,0.087,0.004,0.16-0.001,0.224c-0.008,0.063-0.019,0.114-0.038,0.153s-0.041,0.069-0.071,0.088
		c-0.028,0.021-0.06,0.03-0.095,0.031l-2.456,0.122l0.376,7.57c0.002,0.035-0.007,0.068-0.023,0.095
		c-0.015,0.028-0.047,0.051-0.091,0.069c-0.045,0.018-0.104,0.034-0.176,0.05c-0.073,0.015-0.167,0.026-0.279,0.03
		c-0.108,0.006-0.2,0.005-0.277-0.003c-0.077-0.009-0.137-0.019-0.184-0.031c-0.045-0.012-0.078-0.031-0.097-0.059
		c-0.02-0.026-0.03-0.058-0.031-0.093l-0.375-7.57l-2.457,0.122c-0.035,0.002-0.068-0.006-0.098-0.022
		c-0.031-0.017-0.056-0.043-0.075-0.081c-0.021-0.036-0.038-0.087-0.051-0.149c-0.013-0.062-0.023-0.137-0.028-0.222
		c-0.004-0.086-0.002-0.161,0.005-0.227c0.01-0.065,0.021-0.12,0.036-0.161c0.015-0.041,0.038-0.071,0.066-0.092
		c0.029-0.019,0.061-0.03,0.097-0.03l6.071-0.302c0.036-0.001,0.07,0.007,0.099,0.022c0.031,0.018,0.056,0.045,0.079,0.085
		c0.021,0.039,0.039,0.092,0.051,0.155C80.941,127.772,80.949,127.848,80.954,127.933z"/>
	<path d="M92.842,129.209c0.174,0.685,0.251,1.322,0.23,1.914c-0.021,0.591-0.141,1.121-0.364,1.589
		c-0.222,0.468-0.549,0.867-0.98,1.198c-0.432,0.331-0.97,0.579-1.614,0.744c-0.638,0.162-1.213,0.208-1.726,0.138
		c-0.514-0.072-0.968-0.251-1.363-0.535c-0.396-0.284-0.737-0.677-1.022-1.176c-0.285-0.5-0.518-1.097-0.694-1.795
		c-0.171-0.667-0.245-1.294-0.224-1.881c0.022-0.585,0.147-1.112,0.372-1.576c0.227-0.463,0.555-0.862,0.986-1.192
		c0.432-0.331,0.97-0.58,1.615-0.744c0.625-0.159,1.192-0.204,1.701-0.134c0.51,0.07,0.965,0.245,1.365,0.526
		c0.399,0.281,0.742,0.667,1.028,1.159C92.437,127.935,92.667,128.523,92.842,129.209z M91.671,129.59
		c-0.123-0.479-0.279-0.913-0.469-1.304c-0.191-0.391-0.423-0.712-0.699-0.965c-0.277-0.253-0.602-0.421-0.975-0.508
		c-0.375-0.086-0.807-0.065-1.294,0.059c-0.487,0.125-0.873,0.319-1.158,0.588c-0.284,0.268-0.491,0.581-0.62,0.939
		c-0.13,0.357-0.187,0.751-0.172,1.183c0.014,0.432,0.079,0.871,0.194,1.32c0.126,0.498,0.284,0.945,0.474,1.343
		c0.192,0.398,0.421,0.724,0.696,0.976c0.273,0.254,0.596,0.422,0.967,0.506c0.373,0.084,0.808,0.063,1.303-0.064
		c0.493-0.126,0.883-0.323,1.172-0.592c0.289-0.269,0.495-0.585,0.622-0.95c0.125-0.363,0.178-0.763,0.161-1.196
		C91.855,130.495,91.787,130.049,91.671,129.59z"/>
	<path d="M97.535,123.213c0.032,0.077,0.056,0.149,0.072,0.21c0.015,0.063,0.021,0.115,0.013,0.159
		c-0.006,0.044-0.02,0.08-0.04,0.107c-0.02,0.028-0.044,0.048-0.073,0.06l-2.961,1.22l1.131,2.748l2.799-1.151
		c0.029-0.012,0.06-0.016,0.092-0.013c0.033,0.004,0.066,0.018,0.101,0.042c0.034,0.025,0.067,0.064,0.099,0.116
		c0.03,0.052,0.065,0.123,0.1,0.211c0.032,0.079,0.057,0.149,0.072,0.208c0.015,0.06,0.019,0.113,0.012,0.155
		c-0.006,0.044-0.019,0.081-0.039,0.111c-0.019,0.03-0.044,0.051-0.073,0.063l-2.797,1.152l1.385,3.367
		c0.011,0.029,0.015,0.061,0.01,0.093c-0.006,0.035-0.027,0.068-0.062,0.099c-0.036,0.031-0.086,0.067-0.147,0.104
		c-0.063,0.038-0.148,0.079-0.256,0.124c-0.1,0.041-0.188,0.072-0.263,0.091c-0.074,0.019-0.135,0.03-0.183,0.031
		c-0.047,0.002-0.086-0.007-0.113-0.027c-0.027-0.02-0.048-0.045-0.059-0.074l-3.081-7.481c-0.066-0.163-0.072-0.294-0.011-0.394
		c0.059-0.101,0.135-0.17,0.232-0.21l3.636-1.495c0.029-0.012,0.061-0.016,0.094-0.011c0.033,0.007,0.069,0.022,0.105,0.052
		c0.036,0.029,0.072,0.071,0.104,0.129C97.469,123.065,97.502,123.133,97.535,123.213z"/>
	<path d="M109.423,125.283c0.047,0.075,0.083,0.143,0.108,0.199c0.024,0.056,0.039,0.108,0.045,0.153
		c0.005,0.048,0,0.088-0.013,0.12s-0.039,0.059-0.072,0.08l-3.282,2.04c-0.088,0.053-0.189,0.075-0.305,0.066
		c-0.114-0.011-0.219-0.092-0.312-0.239l-4.273-6.873c-0.018-0.03-0.028-0.062-0.026-0.094c0-0.031,0.015-0.067,0.046-0.104
		s0.074-0.08,0.134-0.132c0.058-0.051,0.134-0.103,0.225-0.16c0.096-0.059,0.179-0.104,0.248-0.134
		c0.069-0.028,0.128-0.049,0.174-0.06c0.047-0.01,0.085-0.009,0.114,0.006c0.03,0.012,0.053,0.034,0.072,0.066l3.991,6.42
		l2.661-1.656c0.035-0.021,0.071-0.029,0.106-0.028c0.035,0.002,0.072,0.013,0.11,0.034c0.036,0.021,0.076,0.057,0.116,0.105
		C109.331,125.144,109.375,125.206,109.423,125.283z"/>
	<path d="M114.771,121.186c0.051,0.063,0.092,0.122,0.122,0.175s0.051,0.104,0.056,0.149c0.008,0.046,0.006,0.085-0.006,0.116
		c-0.011,0.031-0.031,0.061-0.06,0.083l-3.29,2.599c-0.082,0.064-0.181,0.098-0.297,0.1c-0.114,0.004-0.228-0.065-0.337-0.202
		l-4.832-6.116c-0.109-0.139-0.148-0.263-0.119-0.376c0.03-0.112,0.084-0.199,0.166-0.265l3.254-2.571
		c0.027-0.022,0.059-0.035,0.093-0.04c0.034-0.004,0.071,0.005,0.11,0.025c0.038,0.021,0.082,0.051,0.129,0.093
		c0.048,0.041,0.097,0.096,0.154,0.168c0.05,0.063,0.09,0.122,0.119,0.176c0.028,0.055,0.048,0.104,0.057,0.145
		c0.01,0.041,0.008,0.077-0.004,0.11c-0.011,0.031-0.031,0.06-0.061,0.082l-2.682,2.12l1.699,2.151l2.302-1.817
		c0.028-0.022,0.06-0.034,0.094-0.037c0.036-0.002,0.072,0.006,0.112,0.021c0.039,0.016,0.08,0.047,0.127,0.09
		c0.046,0.045,0.093,0.101,0.148,0.167c0.052,0.064,0.09,0.122,0.119,0.173c0.03,0.052,0.048,0.099,0.053,0.139
		c0.006,0.041,0.003,0.077-0.009,0.107c-0.013,0.031-0.034,0.058-0.063,0.08l-2.3,1.815l1.938,2.454l2.718-2.148
		c0.028-0.021,0.059-0.034,0.092-0.039c0.035-0.004,0.073,0.002,0.114,0.019c0.042,0.016,0.084,0.045,0.129,0.087
		C114.665,121.058,114.715,121.115,114.771,121.186z"/>
	<path d="M121.207,114.926c0.095,0.044,0.167,0.086,0.212,0.127c0.045,0.04,0.066,0.085,0.063,0.133
		c-0.003,0.049-0.031,0.105-0.082,0.172c-0.051,0.066-0.127,0.149-0.224,0.248c-0.096,0.101-0.177,0.178-0.239,0.233
		c-0.063,0.055-0.115,0.092-0.156,0.112s-0.079,0.028-0.112,0.022c-0.033-0.004-0.072-0.013-0.113-0.029l-2.048-0.949l-2.536,2.602
		l1.003,1.979c0.02,0.037,0.032,0.074,0.038,0.112c0.005,0.037,0,0.077-0.015,0.122c-0.014,0.046-0.048,0.098-0.095,0.161
		c-0.049,0.062-0.116,0.14-0.204,0.229c-0.094,0.093-0.172,0.166-0.237,0.218c-0.066,0.05-0.123,0.079-0.168,0.081
		c-0.046,0.002-0.091-0.02-0.134-0.063c-0.041-0.044-0.086-0.113-0.132-0.209l-3.766-7.767c-0.022-0.048-0.034-0.093-0.036-0.135
		c-0.002-0.044,0.01-0.092,0.035-0.145c0.028-0.052,0.069-0.112,0.125-0.18c0.057-0.068,0.133-0.15,0.226-0.247
		c0.101-0.103,0.187-0.187,0.257-0.25c0.072-0.063,0.133-0.109,0.187-0.137c0.053-0.03,0.104-0.044,0.149-0.043
		c0.047,0.001,0.093,0.012,0.142,0.033L121.207,114.926z M113.45,112.615l-0.004,0.005l2.066,4.12l2.121-2.176L113.45,112.615z"/>
	<path d="M126.223,108.63c0.029,0.022,0.051,0.046,0.064,0.072c0.012,0.027,0.013,0.064,0.002,0.111
		c-0.011,0.048-0.039,0.106-0.08,0.176c-0.04,0.071-0.101,0.159-0.18,0.27c-0.069,0.094-0.13,0.169-0.181,0.224
		c-0.051,0.055-0.097,0.094-0.141,0.118c-0.042,0.024-0.087,0.035-0.13,0.032c-0.044-0.001-0.092-0.01-0.147-0.028l-2.136-0.571
		c-0.244-0.063-0.477-0.111-0.694-0.146c-0.218-0.034-0.425-0.036-0.623-0.008c-0.196,0.027-0.382,0.094-0.559,0.2
		c-0.175,0.106-0.34,0.265-0.499,0.48l-0.461,0.625l3,2.204c0.029,0.021,0.048,0.048,0.057,0.079
		c0.01,0.032,0.009,0.071-0.005,0.114c-0.012,0.044-0.036,0.098-0.071,0.164c-0.034,0.068-0.086,0.147-0.154,0.237
		c-0.066,0.09-0.126,0.162-0.178,0.215c-0.053,0.053-0.1,0.093-0.139,0.119c-0.04,0.029-0.074,0.04-0.107,0.039
		c-0.032-0.001-0.064-0.012-0.093-0.033l-6.521-4.791c-0.141-0.105-0.213-0.215-0.215-0.33c-0.003-0.115,0.029-0.216,0.09-0.299
		l1.099-1.497c0.132-0.178,0.244-0.321,0.339-0.433c0.095-0.113,0.183-0.211,0.264-0.297c0.247-0.238,0.499-0.423,0.752-0.559
		c0.255-0.133,0.512-0.215,0.772-0.241c0.259-0.027,0.517-0.002,0.769,0.076c0.253,0.076,0.502,0.205,0.745,0.384
		c0.236,0.173,0.423,0.359,0.564,0.561c0.139,0.201,0.236,0.414,0.293,0.64c0.055,0.225,0.074,0.461,0.056,0.704
		c-0.017,0.245-0.065,0.497-0.145,0.757c0.135-0.078,0.278-0.137,0.423-0.174c0.149-0.037,0.307-0.056,0.476-0.058
		c0.169-0.003,0.351,0.013,0.545,0.045c0.195,0.03,0.408,0.075,0.638,0.134l2.016,0.508c0.169,0.045,0.284,0.08,0.347,0.104
		C126.147,108.586,126.193,108.607,126.223,108.63z M120.239,106.404c-0.277-0.202-0.554-0.312-0.835-0.329
		c-0.281-0.017-0.569,0.09-0.867,0.317c-0.092,0.071-0.187,0.161-0.28,0.268c-0.095,0.107-0.211,0.253-0.346,0.438l-0.58,0.789
		l2.372,1.744l0.672-0.913c0.18-0.247,0.307-0.482,0.379-0.706c0.071-0.224,0.099-0.436,0.079-0.634
		c-0.019-0.197-0.08-0.379-0.184-0.542C120.546,106.674,120.409,106.529,120.239,106.404z"/>
	<path d="M130.375,100.519c0.079,0.042,0.141,0.092,0.182,0.146c0.041,0.058,0.069,0.116,0.082,0.178
		c0.012,0.063,0.013,0.125,0.001,0.187s-0.032,0.118-0.061,0.174l-0.18,0.339c-0.055,0.107-0.116,0.194-0.18,0.265
		c-0.065,0.068-0.145,0.123-0.24,0.165c-0.096,0.042-0.213,0.071-0.35,0.092c-0.138,0.02-0.306,0.03-0.503,0.029l-5.642,0.037
		c-0.292,0.005-0.595,0.004-0.91-0.004c-0.316-0.006-0.62-0.017-0.912-0.031l-0.007,0.011c0.292,0.144,0.586,0.291,0.889,0.444
		c0.301,0.153,0.598,0.309,0.893,0.463l4.664,2.463c0.03,0.014,0.051,0.036,0.069,0.067c0.016,0.03,0.022,0.07,0.014,0.116
		c-0.007,0.047-0.023,0.106-0.046,0.176c-0.026,0.071-0.065,0.155-0.118,0.258c-0.051,0.101-0.101,0.181-0.146,0.24
		c-0.044,0.06-0.084,0.105-0.118,0.135c-0.033,0.03-0.067,0.047-0.103,0.052c-0.034,0.003-0.066-0.004-0.093-0.018l-7.133-3.763
		c-0.158-0.084-0.249-0.189-0.269-0.315c-0.021-0.126-0.003-0.243,0.052-0.35l0.268-0.506c0.063-0.119,0.125-0.214,0.188-0.283
		c0.063-0.07,0.133-0.123,0.213-0.164c0.081-0.039,0.175-0.067,0.289-0.084c0.112-0.016,0.25-0.025,0.406-0.026l4.351-0.021
		c0.266-0.002,0.524-0.003,0.776-0.003c0.252,0,0.499,0.002,0.741,0.006c0.242,0.006,0.482,0.01,0.716,0.012
		c0.235,0.005,0.469,0.009,0.708,0.015l0.003-0.008c-0.319-0.156-0.65-0.324-0.992-0.502c-0.34-0.177-0.668-0.35-0.985-0.516
		l-4.192-2.212c-0.029-0.016-0.05-0.037-0.063-0.066c-0.016-0.031-0.022-0.069-0.019-0.118c0.003-0.051,0.019-0.109,0.044-0.178
		c0.027-0.07,0.068-0.156,0.123-0.262c0.049-0.093,0.095-0.171,0.139-0.233c0.043-0.063,0.084-0.109,0.121-0.137
		c0.038-0.029,0.074-0.046,0.106-0.051c0.033-0.003,0.064,0.001,0.092,0.017L130.375,100.519z"/>
	<path d="M132.157,96.829c0.034,0.013,0.059,0.032,0.078,0.06c0.019,0.026,0.027,0.064,0.026,0.112
		c-0.003,0.047-0.011,0.107-0.028,0.181c-0.017,0.072-0.046,0.163-0.087,0.269c-0.039,0.099-0.078,0.184-0.116,0.251
		c-0.039,0.068-0.073,0.119-0.105,0.154c-0.031,0.037-0.063,0.059-0.093,0.065s-0.064,0.004-0.097-0.011l-7.813-3.056
		c-0.033-0.013-0.06-0.034-0.077-0.063c-0.018-0.029-0.025-0.067-0.023-0.117c0.004-0.051,0.012-0.111,0.03-0.184
		c0.017-0.073,0.043-0.158,0.081-0.256c0.041-0.104,0.081-0.19,0.118-0.255c0.037-0.066,0.072-0.116,0.103-0.153
		c0.03-0.037,0.063-0.058,0.093-0.065c0.031-0.007,0.064-0.004,0.097,0.01L132.157,96.829z"/>
	<path d="M134.629,87.604c0.088,0.023,0.156,0.058,0.211,0.104c0.052,0.045,0.092,0.096,0.119,0.153
		c0.027,0.059,0.041,0.117,0.043,0.182c0.002,0.063-0.005,0.123-0.021,0.183l-0.098,0.371c-0.03,0.116-0.071,0.216-0.118,0.297
		s-0.112,0.153-0.196,0.216c-0.083,0.062-0.191,0.117-0.32,0.168c-0.13,0.05-0.292,0.095-0.484,0.139l-5.49,1.298
		c-0.284,0.068-0.582,0.134-0.889,0.199c-0.31,0.064-0.607,0.121-0.895,0.171l-0.004,0.013c0.316,0.075,0.637,0.153,0.965,0.235
		c0.327,0.083,0.651,0.168,0.973,0.254l5.097,1.357c0.03,0.009,0.058,0.025,0.08,0.052c0.024,0.026,0.038,0.063,0.042,0.11
		c0.003,0.048,0.001,0.108-0.009,0.184c-0.008,0.072-0.026,0.166-0.054,0.275c-0.031,0.111-0.059,0.2-0.089,0.27
		c-0.031,0.067-0.057,0.119-0.085,0.156c-0.027,0.038-0.054,0.062-0.088,0.072c-0.033,0.01-0.065,0.011-0.096,0.004l-7.793-2.075
		c-0.175-0.048-0.284-0.13-0.333-0.248c-0.048-0.118-0.055-0.235-0.025-0.354l0.147-0.552c0.034-0.131,0.074-0.235,0.119-0.317
		c0.046-0.083,0.103-0.151,0.172-0.208c0.068-0.056,0.155-0.104,0.262-0.146c0.107-0.042,0.236-0.081,0.391-0.116l4.234-0.993
		c0.259-0.063,0.512-0.121,0.757-0.177c0.245-0.057,0.486-0.109,0.725-0.158c0.235-0.051,0.47-0.1,0.699-0.148
		c0.23-0.049,0.462-0.097,0.692-0.144l0.003-0.007c-0.346-0.083-0.707-0.173-1.078-0.271c-0.374-0.097-0.731-0.19-1.075-0.281
		l-4.582-1.22c-0.031-0.009-0.056-0.025-0.078-0.051c-0.021-0.027-0.035-0.063-0.044-0.113c-0.008-0.048-0.007-0.11,0.004-0.183
		s0.031-0.168,0.062-0.282c0.027-0.101,0.055-0.188,0.083-0.258c0.03-0.071,0.058-0.125,0.089-0.16
		c0.031-0.036,0.062-0.06,0.092-0.071c0.031-0.011,0.062-0.013,0.093-0.006L134.629,87.604z"/>
	<path d="M128.823,77.237c0.087,0.008,0.16,0.021,0.224,0.034c0.064,0.016,0.117,0.034,0.157,0.057
		c0.04,0.022,0.068,0.049,0.084,0.077c0.015,0.028,0.021,0.059,0.018,0.091c-0.005,0.053-0.057,0.138-0.154,0.256
		c-0.098,0.117-0.209,0.275-0.335,0.476c-0.124,0.2-0.245,0.442-0.359,0.728c-0.115,0.284-0.194,0.627-0.235,1.031
		c-0.05,0.479-0.007,0.919,0.131,1.317c0.135,0.4,0.343,0.748,0.625,1.042c0.282,0.297,0.628,0.537,1.04,0.722
		s0.866,0.302,1.363,0.354c0.555,0.056,1.055,0.031,1.503-0.08c0.445-0.111,0.83-0.287,1.155-0.53
		c0.323-0.242,0.58-0.545,0.772-0.909c0.19-0.362,0.309-0.77,0.356-1.222c0.027-0.271,0.023-0.544-0.014-0.827
		c-0.035-0.281-0.107-0.548-0.214-0.801l-2.532-0.258l-0.207,2.017c-0.008,0.075-0.051,0.13-0.133,0.158
		c-0.079,0.03-0.2,0.038-0.361,0.021c-0.086-0.009-0.158-0.021-0.216-0.034c-0.06-0.016-0.108-0.035-0.144-0.06
		c-0.035-0.023-0.062-0.051-0.077-0.079c-0.015-0.028-0.021-0.063-0.017-0.104l0.283-2.761c0.005-0.05,0.019-0.098,0.042-0.146
		s0.053-0.09,0.094-0.127c0.04-0.035,0.092-0.063,0.156-0.078c0.065-0.016,0.138-0.019,0.218-0.012l3.312,0.34
		c0.117,0.011,0.216,0.043,0.297,0.092c0.082,0.049,0.148,0.142,0.199,0.278c0.051,0.136,0.104,0.312,0.159,0.525
		c0.055,0.214,0.098,0.433,0.131,0.658c0.03,0.225,0.049,0.45,0.052,0.677c0.003,0.228-0.006,0.45-0.029,0.67
		c-0.069,0.671-0.234,1.261-0.496,1.769c-0.263,0.508-0.605,0.923-1.029,1.249c-0.42,0.326-0.911,0.558-1.468,0.695
		c-0.558,0.137-1.167,0.173-1.831,0.104c-0.689-0.071-1.303-0.238-1.842-0.504c-0.54-0.266-0.986-0.606-1.341-1.026
		c-0.356-0.421-0.615-0.907-0.778-1.459c-0.163-0.554-0.211-1.152-0.146-1.797c0.034-0.332,0.096-0.641,0.184-0.925
		c0.088-0.285,0.183-0.538,0.284-0.756c0.102-0.217,0.207-0.398,0.314-0.544c0.108-0.145,0.195-0.244,0.257-0.296
		c0.064-0.052,0.136-0.086,0.215-0.102C128.569,77.221,128.681,77.221,128.823,77.237z"/>
</g>
<g>
	<path id="Innerer_Ring_3_" fill="none" d="M127.695,78.753c-2.036,29.111-27.286,51.062-56.399,49.027
		c-29.114-2.037-51.063-27.288-49.027-56.399c2.035-29.113,27.285-51.063,56.399-49.026
		C107.78,24.391,129.731,49.641,127.695,78.753z"/>
	<path d="M22.372,55.351c0.507,0.155,0.938,0.37,1.29,0.642s0.625,0.587,0.813,0.947c0.191,0.36,0.296,0.761,0.316,1.199
		c0.02,0.44-0.048,0.912-0.203,1.416c-0.142,0.46-0.338,0.859-0.587,1.197c-0.251,0.339-0.548,0.603-0.892,0.792
		c-0.345,0.191-0.734,0.299-1.17,0.324c-0.438,0.027-0.912-0.04-1.424-0.198l-5.183-1.597c-0.035-0.01-0.063-0.029-0.083-0.053
		c-0.021-0.025-0.031-0.062-0.034-0.111c-0.001-0.048,0.003-0.107,0.014-0.18c0.01-0.071,0.032-0.164,0.067-0.275
		c0.031-0.104,0.065-0.191,0.098-0.26c0.033-0.07,0.063-0.123,0.092-0.159c0.028-0.036,0.056-0.059,0.088-0.069
		c0.031-0.01,0.065-0.009,0.098,0.002l5.049,1.556c0.387,0.12,0.74,0.176,1.057,0.172c0.318-0.008,0.6-0.07,0.846-0.189
		c0.247-0.119,0.458-0.291,0.632-0.513c0.174-0.221,0.31-0.49,0.407-0.804c0.099-0.323,0.14-0.625,0.124-0.906
		c-0.017-0.28-0.092-0.538-0.229-0.77c-0.135-0.232-0.329-0.438-0.58-0.617c-0.252-0.177-0.564-0.325-0.939-0.44l-5.105-1.574
		c-0.034-0.011-0.062-0.029-0.082-0.053c-0.021-0.025-0.032-0.062-0.033-0.109c-0.002-0.048,0.002-0.109,0.013-0.184
		c0.01-0.074,0.032-0.165,0.066-0.273c0.032-0.104,0.064-0.189,0.096-0.257c0.032-0.068,0.063-0.12,0.091-0.155
		c0.029-0.036,0.058-0.06,0.09-0.072c0.03-0.01,0.064-0.011,0.098-0.001L22.372,55.351z"/>
	<path d="M28.698,48.358c0.082,0.039,0.142,0.087,0.185,0.143c0.043,0.054,0.072,0.113,0.087,0.175
		c0.014,0.062,0.016,0.124,0.005,0.186c-0.01,0.062-0.031,0.121-0.056,0.174l-0.172,0.344c-0.054,0.109-0.112,0.197-0.174,0.267
		c-0.063,0.072-0.142,0.128-0.236,0.172c-0.094,0.044-0.21,0.078-0.348,0.101c-0.136,0.022-0.304,0.035-0.502,0.039l-5.639,0.172
		c-0.292,0.011-0.595,0.015-0.911,0.017c-0.316,0.002-0.619-0.002-0.912-0.011l-0.006,0.012c0.295,0.136,0.594,0.276,0.898,0.424
		c0.304,0.147,0.605,0.294,0.904,0.441l4.724,2.351c0.028,0.014,0.051,0.036,0.069,0.066c0.019,0.031,0.023,0.07,0.018,0.116
		c-0.006,0.048-0.021,0.107-0.043,0.176c-0.022,0.072-0.06,0.158-0.111,0.26c-0.05,0.103-0.097,0.184-0.139,0.245
		c-0.043,0.061-0.082,0.107-0.114,0.138s-0.068,0.05-0.103,0.052c-0.034,0.004-0.066-0.001-0.093-0.015l-7.221-3.595
		c-0.162-0.08-0.254-0.183-0.276-0.308c-0.023-0.126-0.009-0.243,0.046-0.352l0.255-0.511c0.06-0.121,0.121-0.217,0.181-0.288
		c0.061-0.071,0.13-0.127,0.209-0.169c0.078-0.042,0.174-0.072,0.286-0.092c0.113-0.019,0.25-0.03,0.406-0.034l4.348-0.126
		c0.266-0.009,0.524-0.015,0.777-0.021c0.251-0.006,0.499-0.01,0.741-0.01c0.242-0.001,0.48-0.003,0.715-0.005
		c0.235-0.002,0.471-0.003,0.708-0.002l0.002-0.007c-0.322-0.15-0.656-0.31-1.002-0.48c-0.345-0.17-0.678-0.334-0.996-0.492
		l-4.246-2.114c-0.028-0.014-0.05-0.035-0.065-0.065s-0.022-0.069-0.021-0.118c0.002-0.05,0.015-0.11,0.041-0.179
		c0.024-0.07,0.063-0.158,0.116-0.264c0.047-0.093,0.091-0.173,0.133-0.235c0.041-0.064,0.081-0.112,0.118-0.139
		c0.038-0.031,0.073-0.048,0.105-0.052c0.033-0.004,0.063,0,0.092,0.014L28.698,48.358z"/>
	<path d="M30.772,45.78c0.03,0.02,0.051,0.045,0.064,0.073c0.012,0.031,0.013,0.069,0.002,0.114
		c-0.011,0.047-0.031,0.104-0.063,0.173c-0.031,0.069-0.077,0.15-0.138,0.244c-0.058,0.092-0.112,0.165-0.165,0.224
		c-0.051,0.058-0.095,0.102-0.133,0.131c-0.037,0.03-0.072,0.044-0.105,0.045c-0.032,0-0.064-0.01-0.094-0.03l-7.039-4.561
		c-0.031-0.02-0.051-0.046-0.063-0.077c-0.011-0.032-0.01-0.072,0.001-0.12c0.012-0.048,0.034-0.107,0.065-0.174
		c0.03-0.069,0.075-0.147,0.131-0.234c0.061-0.093,0.116-0.17,0.167-0.226c0.05-0.056,0.093-0.099,0.132-0.128
		c0.039-0.03,0.073-0.044,0.105-0.044c0.033,0,0.064,0.009,0.094,0.029L30.772,45.78z"/>
	<path d="M34.113,41.234c0.028,0.045,0.043,0.09,0.048,0.133c0.006,0.046-0.003,0.095-0.025,0.15
		c-0.021,0.054-0.056,0.119-0.106,0.192c-0.05,0.072-0.116,0.159-0.197,0.261c-0.062,0.077-0.117,0.144-0.167,0.2
		c-0.049,0.055-0.092,0.103-0.133,0.139c-0.042,0.036-0.078,0.067-0.112,0.09c-0.032,0.022-0.064,0.039-0.094,0.049
		c-0.031,0.01-0.062,0.012-0.091,0.01c-0.029-0.003-0.062-0.01-0.097-0.023l-8.116-2.866c-0.101-0.034-0.174-0.07-0.223-0.105
		c-0.049-0.037-0.073-0.08-0.072-0.133c0.001-0.051,0.026-0.114,0.075-0.191c0.05-0.075,0.123-0.174,0.218-0.292
		c0.079-0.098,0.146-0.174,0.196-0.229c0.052-0.052,0.098-0.09,0.137-0.111c0.039-0.02,0.076-0.029,0.112-0.027
		c0.036,0.003,0.077,0.01,0.124,0.025l7.301,2.661l0.005-0.006l-4.191-6.503c-0.03-0.042-0.051-0.079-0.065-0.112
		c-0.013-0.033-0.013-0.074,0.001-0.121c0.014-0.047,0.043-0.103,0.089-0.171c0.047-0.067,0.112-0.153,0.196-0.258
		c0.087-0.109,0.161-0.192,0.22-0.247c0.06-0.056,0.111-0.086,0.153-0.09c0.042-0.003,0.085,0.017,0.129,0.06
		c0.043,0.044,0.093,0.111,0.147,0.201L34.113,41.234z"/>
	<path d="M40.112,34.639c0.056,0.059,0.102,0.113,0.136,0.164c0.035,0.052,0.059,0.097,0.072,0.143
		c0.01,0.045,0.013,0.084,0.005,0.117c-0.009,0.032-0.027,0.063-0.051,0.088l-3.039,2.893c-0.074,0.072-0.169,0.114-0.284,0.127
		c-0.115,0.014-0.234-0.043-0.355-0.171l-5.376-5.644c-0.121-0.128-0.173-0.249-0.154-0.362c0.019-0.114,0.066-0.208,0.14-0.278
		l3.003-2.859c0.026-0.025,0.056-0.041,0.09-0.05c0.033-0.006,0.072-0.002,0.112,0.015c0.042,0.017,0.086,0.044,0.137,0.08
		c0.05,0.036,0.105,0.087,0.168,0.152c0.055,0.058,0.1,0.113,0.134,0.166c0.033,0.051,0.057,0.097,0.071,0.137
		c0.012,0.04,0.015,0.077,0.007,0.111c-0.01,0.032-0.026,0.062-0.052,0.087l-2.475,2.357l1.892,1.985l2.123-2.021
		c0.027-0.025,0.056-0.041,0.092-0.046c0.036-0.006,0.072-0.002,0.113,0.011c0.04,0.011,0.085,0.037,0.133,0.076
		c0.051,0.039,0.105,0.091,0.164,0.153c0.056,0.058,0.101,0.112,0.135,0.161c0.033,0.049,0.055,0.093,0.065,0.133
		c0.01,0.04,0.01,0.075,0,0.107c-0.011,0.032-0.029,0.061-0.054,0.085l-2.122,2.022l2.157,2.265l2.509-2.389
		c0.027-0.025,0.056-0.041,0.091-0.048c0.032-0.009,0.072-0.005,0.113,0.008c0.043,0.012,0.088,0.037,0.136,0.075
		C39.995,34.522,40.05,34.574,40.112,34.639z"/>
	<path d="M46.27,30.374c0.022,0.03,0.034,0.058,0.04,0.088c0.005,0.031-0.005,0.066-0.03,0.107c-0.027,0.042-0.07,0.089-0.13,0.146
		c-0.061,0.054-0.145,0.123-0.253,0.202c-0.095,0.069-0.174,0.121-0.24,0.158c-0.065,0.037-0.123,0.061-0.17,0.072
		c-0.049,0.01-0.092,0.009-0.135-0.007c-0.041-0.015-0.085-0.038-0.131-0.071l-1.866-1.186c-0.216-0.133-0.421-0.249-0.619-0.346
		c-0.197-0.098-0.395-0.164-0.591-0.195c-0.196-0.032-0.395-0.024-0.594,0.025c-0.199,0.049-0.406,0.151-0.621,0.308l-0.626,0.459
		l2.201,3.003c0.021,0.029,0.031,0.06,0.03,0.093c0,0.033-0.014,0.07-0.038,0.108c-0.026,0.037-0.064,0.083-0.118,0.135
		c-0.053,0.052-0.125,0.113-0.215,0.18c-0.09,0.066-0.169,0.117-0.235,0.152c-0.066,0.036-0.123,0.06-0.168,0.072
		c-0.046,0.014-0.083,0.016-0.113,0.005c-0.031-0.01-0.056-0.031-0.078-0.061l-4.784-6.527c-0.104-0.142-0.139-0.268-0.106-0.379
		c0.033-0.111,0.092-0.196,0.175-0.258l1.498-1.097c0.178-0.131,0.33-0.235,0.455-0.313c0.125-0.077,0.238-0.146,0.341-0.204
		c0.306-0.153,0.603-0.255,0.885-0.305c0.284-0.051,0.553-0.051,0.81,0.001c0.256,0.052,0.493,0.154,0.712,0.303
		c0.219,0.15,0.418,0.346,0.595,0.589c0.174,0.236,0.297,0.471,0.37,0.705c0.073,0.233,0.102,0.466,0.089,0.698
		c-0.015,0.23-0.067,0.461-0.157,0.688c-0.091,0.229-0.212,0.455-0.365,0.678c0.154-0.034,0.305-0.047,0.458-0.038
		c0.152,0.009,0.308,0.038,0.469,0.087c0.162,0.05,0.331,0.117,0.507,0.207s0.366,0.195,0.569,0.319l1.771,1.089
		c0.146,0.092,0.247,0.161,0.299,0.203C46.211,30.31,46.25,30.346,46.27,30.374z M41.23,26.457
		c-0.203-0.277-0.435-0.464-0.698-0.564c-0.264-0.1-0.571-0.085-0.923,0.045c-0.11,0.042-0.226,0.097-0.348,0.171
		c-0.123,0.072-0.276,0.176-0.46,0.314l-0.79,0.579l1.741,2.375l0.916-0.67c0.246-0.181,0.438-0.368,0.574-0.56
		c0.135-0.192,0.225-0.384,0.266-0.58c0.041-0.194,0.036-0.386-0.014-0.572C41.443,26.806,41.354,26.627,41.23,26.457z"/>
	<path d="M50.352,25.478c0.201,0.359,0.314,0.713,0.338,1.066c0.024,0.353-0.025,0.691-0.151,1.016
		c-0.125,0.326-0.318,0.625-0.581,0.901c-0.261,0.275-0.575,0.515-0.94,0.72c-0.256,0.143-0.503,0.254-0.747,0.333
		c-0.242,0.078-0.466,0.134-0.672,0.167c-0.206,0.033-0.386,0.049-0.54,0.046c-0.154-0.002-0.266-0.013-0.338-0.035
		c-0.071-0.022-0.137-0.063-0.199-0.124c-0.063-0.061-0.129-0.153-0.195-0.275c-0.049-0.086-0.085-0.159-0.11-0.221
		c-0.023-0.062-0.038-0.114-0.042-0.158c-0.004-0.044,0.001-0.08,0.018-0.106c0.015-0.028,0.038-0.051,0.071-0.068
		c0.055-0.03,0.151-0.041,0.29-0.03c0.137,0.01,0.307,0.011,0.507,0.003c0.202-0.01,0.432-0.043,0.693-0.098
		c0.259-0.054,0.536-0.164,0.827-0.327c0.219-0.124,0.405-0.265,0.554-0.426c0.15-0.161,0.26-0.333,0.332-0.515
		c0.072-0.181,0.098-0.371,0.081-0.567c-0.017-0.196-0.082-0.396-0.194-0.596c-0.122-0.215-0.275-0.374-0.458-0.471
		c-0.185-0.099-0.389-0.16-0.615-0.186c-0.227-0.027-0.469-0.03-0.729-0.011c-0.26,0.02-0.526,0.039-0.799,0.06
		c-0.272,0.021-0.544,0.028-0.816,0.02c-0.273-0.007-0.536-0.048-0.788-0.123c-0.255-0.074-0.493-0.195-0.717-0.361
		s-0.423-0.403-0.598-0.714c-0.178-0.318-0.278-0.634-0.302-0.949c-0.024-0.314,0.021-0.614,0.133-0.898
		c0.112-0.284,0.285-0.551,0.521-0.798c0.235-0.248,0.518-0.464,0.848-0.648c0.169-0.094,0.348-0.175,0.535-0.241
		c0.188-0.066,0.371-0.117,0.549-0.154c0.178-0.034,0.344-0.055,0.496-0.061c0.153-0.005,0.258,0,0.316,0.017
		c0.058,0.017,0.099,0.032,0.123,0.048c0.025,0.014,0.05,0.036,0.076,0.066c0.027,0.029,0.054,0.067,0.085,0.111
		c0.031,0.046,0.067,0.105,0.109,0.179c0.039,0.072,0.072,0.135,0.096,0.194c0.024,0.058,0.042,0.11,0.051,0.153
		c0.009,0.044,0.007,0.08-0.005,0.11c-0.012,0.031-0.031,0.052-0.059,0.069c-0.043,0.024-0.127,0.033-0.251,0.03
		c-0.123-0.003-0.27-0.002-0.441,0.005c-0.173,0.006-0.365,0.03-0.581,0.076c-0.215,0.045-0.436,0.133-0.664,0.259
		c-0.212,0.119-0.38,0.251-0.506,0.396c-0.125,0.145-0.214,0.294-0.262,0.444c-0.05,0.152-0.063,0.307-0.042,0.464
		c0.021,0.158,0.072,0.311,0.153,0.456c0.119,0.212,0.271,0.367,0.454,0.465c0.185,0.099,0.391,0.161,0.621,0.188
		c0.229,0.026,0.475,0.03,0.738,0.011c0.262-0.019,0.53-0.038,0.803-0.059c0.273-0.021,0.545-0.03,0.821-0.026
		s0.541,0.042,0.795,0.112c0.253,0.072,0.493,0.191,0.718,0.357C49.987,24.942,50.184,25.176,50.352,25.478z"/>
	<path d="M53.882,26.413c0.014,0.032,0.019,0.065,0.013,0.097c-0.006,0.032-0.025,0.065-0.06,0.097
		c-0.034,0.032-0.084,0.07-0.146,0.112c-0.063,0.04-0.146,0.084-0.249,0.13c-0.099,0.044-0.185,0.077-0.26,0.098
		c-0.074,0.021-0.135,0.032-0.182,0.037c-0.049,0.004-0.086-0.003-0.113-0.02c-0.027-0.017-0.048-0.043-0.063-0.075l-3.428-7.656
		c-0.014-0.032-0.019-0.066-0.011-0.098c0.009-0.032,0.031-0.066,0.066-0.1c0.037-0.033,0.087-0.071,0.151-0.112
		c0.063-0.041,0.142-0.082,0.235-0.125c0.103-0.047,0.191-0.079,0.263-0.1c0.072-0.02,0.134-0.03,0.18-0.035
		c0.048-0.005,0.085,0.003,0.112,0.02c0.028,0.017,0.049,0.043,0.063,0.075L53.882,26.413z"/>
	<path d="M58.435,16.162c0.028,0.08,0.048,0.153,0.06,0.215c0.01,0.063,0.013,0.115,0.007,0.157
		c-0.007,0.043-0.021,0.077-0.042,0.104c-0.023,0.027-0.051,0.046-0.085,0.058l-2.327,0.79l2.439,7.176
		c0.011,0.034,0.013,0.068,0.005,0.099c-0.009,0.03-0.031,0.062-0.07,0.092c-0.037,0.03-0.089,0.061-0.155,0.094
		c-0.067,0.034-0.153,0.071-0.26,0.106c-0.103,0.035-0.191,0.059-0.267,0.073c-0.076,0.013-0.138,0.021-0.187,0.021
		c-0.048,0-0.084-0.011-0.11-0.031c-0.026-0.019-0.044-0.047-0.055-0.08l-2.439-7.177l-2.328,0.792
		c-0.034,0.011-0.068,0.013-0.102,0.006c-0.033-0.008-0.065-0.027-0.093-0.056c-0.03-0.031-0.06-0.073-0.091-0.131
		c-0.031-0.056-0.061-0.125-0.088-0.206c-0.028-0.081-0.047-0.153-0.057-0.219c-0.009-0.066-0.014-0.12-0.01-0.165
		c0.003-0.044,0.016-0.079,0.039-0.106c0.021-0.026,0.05-0.046,0.084-0.057l5.754-1.957c0.034-0.012,0.069-0.013,0.102-0.006
		c0.033,0.008,0.066,0.027,0.099,0.059c0.032,0.031,0.063,0.076,0.093,0.136C58.38,16.01,58.408,16.081,58.435,16.162z"/>
	<path d="M64.089,19.875l0.654,3.155c0.008,0.035,0.005,0.068-0.008,0.097c-0.011,0.031-0.039,0.058-0.079,0.082
		c-0.041,0.026-0.096,0.051-0.169,0.077c-0.071,0.026-0.161,0.051-0.266,0.072c-0.11,0.023-0.202,0.035-0.276,0.04
		c-0.074,0.004-0.136,0.003-0.186-0.003c-0.05-0.007-0.086-0.021-0.11-0.044c-0.023-0.023-0.038-0.051-0.045-0.087l-0.654-3.154
		l-3.422-4.327c-0.07-0.091-0.116-0.164-0.139-0.22c-0.023-0.054-0.021-0.101,0.006-0.138c0.026-0.038,0.082-0.071,0.167-0.096
		c0.083-0.027,0.199-0.055,0.344-0.085c0.132-0.029,0.239-0.045,0.323-0.053c0.083-0.009,0.152-0.01,0.202-0.004
		c0.052,0.005,0.093,0.019,0.124,0.043c0.03,0.023,0.061,0.055,0.092,0.095l1.694,2.214c0.158,0.211,0.318,0.433,0.482,0.666
		c0.163,0.235,0.328,0.468,0.496,0.706l0.013-0.002c0.049-0.273,0.101-0.544,0.156-0.816c0.056-0.272,0.114-0.541,0.174-0.806
		l0.678-2.719c0.004-0.048,0.015-0.089,0.033-0.124c0.017-0.036,0.046-0.067,0.084-0.091c0.039-0.024,0.094-0.048,0.168-0.072
		c0.072-0.025,0.166-0.049,0.281-0.072c0.158-0.032,0.284-0.052,0.377-0.061c0.093-0.008,0.16,0,0.202,0.023
		c0.042,0.024,0.063,0.066,0.063,0.125c0.001,0.06-0.013,0.143-0.041,0.251L64.089,19.875z"/>
	<path d="M78.66,17.74c0.002,0.707-0.079,1.344-0.244,1.912c-0.166,0.567-0.412,1.052-0.742,1.451
		c-0.329,0.399-0.745,0.708-1.243,0.923c-0.498,0.215-1.082,0.323-1.749,0.326c-0.657,0.002-1.226-0.094-1.707-0.29
		c-0.481-0.194-0.877-0.479-1.191-0.851c-0.314-0.373-0.548-0.836-0.704-1.389c-0.154-0.554-0.233-1.19-0.236-1.912
		c-0.001-0.688,0.08-1.315,0.245-1.878c0.165-0.563,0.413-1.042,0.746-1.437c0.332-0.396,0.748-0.7,1.247-0.916
		c0.499-0.215,1.082-0.323,1.749-0.325c0.645-0.003,1.204,0.092,1.684,0.284c0.478,0.193,0.876,0.475,1.194,0.845
		c0.319,0.371,0.557,0.83,0.713,1.376C78.578,16.406,78.659,17.033,78.66,17.74z M77.431,17.825
		c-0.001-0.496-0.047-0.955-0.135-1.382c-0.089-0.424-0.235-0.793-0.44-1.106c-0.206-0.313-0.48-0.556-0.822-0.729
		c-0.342-0.174-0.766-0.261-1.269-0.259c-0.503,0.001-0.927,0.097-1.267,0.288c-0.341,0.19-0.618,0.442-0.832,0.759
		c-0.213,0.315-0.364,0.684-0.456,1.105c-0.091,0.421-0.135,0.864-0.134,1.327c0.002,0.514,0.046,0.986,0.133,1.419
		c0.087,0.432,0.232,0.805,0.436,1.117c0.204,0.313,0.475,0.555,0.814,0.728c0.341,0.173,0.767,0.257,1.279,0.256
		c0.508-0.002,0.935-0.097,1.281-0.288c0.346-0.19,0.624-0.446,0.834-0.769c0.21-0.322,0.359-0.695,0.447-1.118
		C77.389,18.746,77.432,18.297,77.431,17.825z"/>
	<path d="M85.861,14.901c-0.011,0.085-0.027,0.157-0.045,0.219c-0.017,0.061-0.039,0.109-0.066,0.144
		c-0.029,0.034-0.058,0.059-0.09,0.072c-0.031,0.014-0.063,0.019-0.094,0.015l-3.171-0.434l-0.403,2.943l3,0.41
		c0.03,0.005,0.06,0.017,0.088,0.036c0.026,0.02,0.049,0.049,0.066,0.087c0.017,0.039,0.026,0.09,0.028,0.151
		c0,0.061-0.006,0.139-0.019,0.233c-0.01,0.085-0.027,0.156-0.043,0.215c-0.017,0.06-0.039,0.106-0.067,0.142
		c-0.028,0.034-0.057,0.059-0.09,0.075c-0.031,0.016-0.063,0.021-0.094,0.017l-2.999-0.41l-0.493,3.607
		c-0.004,0.03-0.017,0.061-0.039,0.087c-0.021,0.027-0.056,0.045-0.102,0.054c-0.048,0.01-0.107,0.015-0.179,0.017
		c-0.072,0.001-0.168-0.007-0.283-0.022c-0.108-0.014-0.197-0.032-0.273-0.054c-0.074-0.021-0.133-0.042-0.174-0.064
		c-0.043-0.023-0.072-0.049-0.085-0.081c-0.013-0.03-0.019-0.063-0.014-0.093l1.096-8.018c0.025-0.174,0.087-0.289,0.187-0.346
		c0.101-0.056,0.203-0.077,0.306-0.064l3.895,0.533c0.031,0.004,0.06,0.017,0.087,0.039c0.027,0.021,0.048,0.054,0.065,0.097
		c0.017,0.043,0.025,0.098,0.025,0.163C85.878,14.741,85.873,14.816,85.861,14.901z"/>
	<path d="M95.042,24.722c-0.022,0.069-0.043,0.128-0.065,0.177c-0.021,0.051-0.043,0.092-0.066,0.128
		c-0.023,0.034-0.05,0.065-0.076,0.089c-0.027,0.025-0.069,0.052-0.126,0.08c-0.056,0.029-0.167,0.065-0.333,0.108
		c-0.167,0.043-0.364,0.072-0.595,0.089c-0.232,0.017-0.486,0.01-0.768-0.017c-0.282-0.029-0.581-0.094-0.891-0.197
		c-0.541-0.176-0.996-0.426-1.371-0.748c-0.376-0.322-0.66-0.708-0.851-1.16c-0.19-0.451-0.283-0.962-0.278-1.531
		c0.005-0.57,0.117-1.19,0.338-1.861c0.227-0.688,0.517-1.273,0.871-1.754c0.355-0.481,0.753-0.855,1.197-1.125
		c0.445-0.269,0.922-0.428,1.434-0.479c0.512-0.05,1.04,0.014,1.583,0.194c0.239,0.078,0.465,0.177,0.678,0.297
		c0.213,0.12,0.403,0.245,0.573,0.377c0.171,0.133,0.317,0.268,0.436,0.406c0.121,0.139,0.2,0.248,0.239,0.323
		c0.037,0.077,0.061,0.133,0.068,0.169c0.009,0.035,0.011,0.075,0.009,0.119c-0.003,0.044-0.011,0.095-0.022,0.153
		c-0.011,0.057-0.031,0.125-0.055,0.201c-0.028,0.086-0.056,0.156-0.085,0.215c-0.029,0.058-0.057,0.103-0.088,0.138
		s-0.061,0.058-0.092,0.07c-0.03,0.012-0.063,0.011-0.096,0.001c-0.061-0.021-0.131-0.089-0.211-0.208
		c-0.079-0.119-0.188-0.256-0.325-0.413c-0.136-0.156-0.313-0.317-0.528-0.48c-0.215-0.164-0.495-0.299-0.833-0.412
		c-0.37-0.122-0.73-0.158-1.082-0.111c-0.354,0.049-0.683,0.18-0.993,0.397c-0.309,0.215-0.591,0.51-0.845,0.885
		c-0.253,0.374-0.467,0.827-0.643,1.357c-0.173,0.526-0.269,1.011-0.287,1.452c-0.019,0.441,0.034,0.833,0.157,1.175
		c0.124,0.341,0.317,0.632,0.583,0.873c0.263,0.241,0.591,0.425,0.982,0.554c0.332,0.11,0.634,0.164,0.909,0.164
		c0.274,0,0.513-0.021,0.722-0.065c0.207-0.044,0.379-0.088,0.518-0.133c0.138-0.045,0.241-0.056,0.305-0.035
		c0.031,0.01,0.053,0.026,0.072,0.045c0.017,0.02,0.027,0.051,0.029,0.091c0.001,0.041-0.008,0.094-0.021,0.16
		C95.098,24.541,95.074,24.624,95.042,24.722z"/>
	<path d="M101.844,28.92c-0.011,0.104-0.03,0.185-0.054,0.24c-0.024,0.054-0.06,0.089-0.107,0.102
		c-0.046,0.011-0.109,0.004-0.188-0.025c-0.079-0.03-0.18-0.074-0.306-0.135c-0.125-0.063-0.224-0.114-0.295-0.158
		c-0.072-0.042-0.125-0.08-0.154-0.112c-0.031-0.033-0.05-0.066-0.057-0.1c-0.006-0.033-0.008-0.072-0.006-0.116l0.269-2.239
		l-3.259-1.608l-1.571,1.568c-0.03,0.031-0.063,0.054-0.094,0.07c-0.033,0.017-0.073,0.025-0.121,0.024
		c-0.048-0.001-0.107-0.015-0.183-0.041c-0.074-0.028-0.168-0.069-0.282-0.124c-0.116-0.058-0.21-0.111-0.278-0.157
		c-0.071-0.046-0.113-0.093-0.13-0.135c-0.016-0.043-0.01-0.092,0.019-0.145c0.029-0.053,0.081-0.115,0.157-0.189l6.219-5.986
		c0.038-0.036,0.078-0.063,0.118-0.077c0.04-0.015,0.089-0.019,0.147-0.01c0.059,0.008,0.129,0.03,0.211,0.062
		c0.081,0.032,0.183,0.079,0.303,0.138c0.131,0.065,0.236,0.12,0.318,0.168c0.082,0.048,0.146,0.092,0.19,0.134
		c0.045,0.042,0.073,0.085,0.086,0.13c0.013,0.045,0.017,0.093,0.011,0.146L101.844,28.92z M101.638,20.829l-0.006-0.003
		l-3.278,3.242l2.727,1.343L101.638,20.829z"/>
	<path d="M106.681,32.059c-0.049,0.075-0.095,0.135-0.135,0.181c-0.042,0.046-0.083,0.081-0.123,0.106
		c-0.041,0.024-0.079,0.037-0.113,0.038c-0.036,0-0.071-0.01-0.104-0.032l-3.224-2.13c-0.087-0.057-0.149-0.14-0.188-0.25
		c-0.039-0.109-0.009-0.236,0.089-0.382l4.459-6.752c0.02-0.03,0.044-0.051,0.074-0.064c0.031-0.013,0.069-0.013,0.114-0.001
		c0.048,0.011,0.106,0.033,0.174,0.067c0.071,0.032,0.152,0.079,0.24,0.139c0.094,0.062,0.169,0.118,0.226,0.168
		c0.054,0.051,0.096,0.095,0.126,0.134c0.03,0.038,0.044,0.072,0.044,0.105c0,0.033-0.011,0.064-0.031,0.093l-4.166,6.306
		l2.613,1.729c0.034,0.023,0.056,0.051,0.071,0.083c0.014,0.032,0.018,0.072,0.014,0.113c-0.005,0.043-0.021,0.093-0.048,0.151
		C106.769,31.917,106.73,31.984,106.681,32.059z"/>
	<path d="M112.348,35.833c-0.047,0.056-0.09,0.102-0.127,0.14c-0.038,0.039-0.075,0.071-0.11,0.093
		c-0.035,0.024-0.07,0.042-0.104,0.054c-0.034,0.012-0.083,0.021-0.146,0.028c-0.064,0.005-0.179-0.003-0.35-0.027
		c-0.172-0.022-0.365-0.068-0.585-0.139c-0.221-0.071-0.456-0.173-0.707-0.304c-0.251-0.133-0.503-0.303-0.753-0.516
		c-0.433-0.366-0.764-0.769-0.991-1.208c-0.229-0.44-0.346-0.904-0.355-1.394c-0.008-0.49,0.097-0.998,0.316-1.525
		c0.216-0.526,0.553-1.059,1.01-1.601c0.467-0.554,0.955-0.987,1.463-1.301c0.511-0.314,1.019-0.512,1.532-0.595
		c0.512-0.084,1.014-0.053,1.508,0.092c0.493,0.146,0.957,0.401,1.396,0.77c0.193,0.163,0.365,0.338,0.518,0.529
		c0.151,0.19,0.281,0.378,0.391,0.563c0.108,0.186,0.192,0.366,0.25,0.539c0.061,0.174,0.094,0.304,0.101,0.39
		c0.008,0.086,0.009,0.146,0.002,0.181c-0.007,0.036-0.02,0.074-0.038,0.114c-0.019,0.04-0.045,0.085-0.077,0.133
		c-0.033,0.049-0.075,0.105-0.129,0.166c-0.056,0.07-0.11,0.125-0.157,0.168c-0.049,0.042-0.093,0.073-0.134,0.094
		c-0.041,0.021-0.078,0.031-0.11,0.031c-0.032-0.001-0.063-0.012-0.091-0.036c-0.048-0.041-0.087-0.132-0.117-0.272
		c-0.031-0.14-0.08-0.309-0.146-0.504c-0.071-0.195-0.174-0.411-0.313-0.643c-0.138-0.233-0.344-0.463-0.619-0.693
		c-0.297-0.252-0.619-0.42-0.963-0.507c-0.344-0.087-0.7-0.089-1.067-0.004c-0.368,0.085-0.739,0.253-1.115,0.505
		c-0.375,0.25-0.744,0.59-1.103,1.017c-0.358,0.423-0.626,0.836-0.811,1.24c-0.182,0.401-0.279,0.786-0.293,1.148
		c-0.012,0.362,0.058,0.706,0.213,1.028c0.155,0.321,0.39,0.615,0.706,0.881c0.266,0.225,0.527,0.388,0.78,0.49
		c0.254,0.103,0.486,0.173,0.693,0.21c0.209,0.038,0.385,0.062,0.531,0.072c0.145,0.01,0.243,0.037,0.295,0.081
		c0.025,0.021,0.041,0.043,0.05,0.069c0.009,0.025,0.005,0.056-0.009,0.093c-0.014,0.038-0.04,0.086-0.08,0.141
		C112.468,35.687,112.414,35.755,112.348,35.833z"/>
	<path d="M119.189,40.419c-0.398,0.352-0.805,0.607-1.219,0.768c-0.416,0.158-0.826,0.226-1.234,0.199
		c-0.407-0.024-0.802-0.143-1.188-0.356c-0.386-0.212-0.752-0.516-1.102-0.911c-0.319-0.362-0.557-0.737-0.714-1.126
		c-0.158-0.39-0.229-0.781-0.212-1.175c0.016-0.393,0.127-0.783,0.333-1.168c0.206-0.387,0.51-0.757,0.912-1.112l4.066-3.59
		c0.028-0.024,0.057-0.038,0.09-0.042c0.032-0.005,0.069,0.005,0.111,0.028c0.042,0.024,0.091,0.059,0.146,0.105
		c0.056,0.047,0.124,0.113,0.201,0.201c0.072,0.082,0.128,0.154,0.17,0.218c0.043,0.065,0.072,0.119,0.089,0.161
		c0.017,0.042,0.021,0.079,0.012,0.111c-0.009,0.031-0.026,0.06-0.052,0.083l-3.959,3.496c-0.304,0.268-0.538,0.54-0.697,0.813
		c-0.16,0.275-0.254,0.548-0.28,0.82c-0.027,0.274,0.01,0.542,0.108,0.807c0.099,0.264,0.256,0.521,0.475,0.767
		c0.222,0.253,0.459,0.445,0.707,0.578s0.507,0.201,0.777,0.206c0.269,0.007,0.545-0.051,0.83-0.173
		c0.283-0.122,0.572-0.312,0.864-0.571l4.006-3.535c0.028-0.025,0.056-0.039,0.09-0.043c0.032-0.005,0.069,0.006,0.11,0.029
		c0.042,0.024,0.092,0.06,0.15,0.108c0.057,0.048,0.124,0.113,0.197,0.198c0.072,0.081,0.128,0.153,0.169,0.215
		c0.041,0.063,0.07,0.116,0.086,0.158c0.016,0.043,0.021,0.08,0.014,0.113c-0.008,0.032-0.025,0.062-0.051,0.085L119.189,40.419z"/>
	<path d="M127.815,44.229c-0.072,0.047-0.134,0.084-0.194,0.112c-0.058,0.027-0.107,0.043-0.151,0.048s-0.081-0.001-0.113-0.015
		c-0.03-0.015-0.055-0.037-0.075-0.067l-1.353-2.054l-6.329,4.169c-0.03,0.02-0.062,0.03-0.093,0.03
		c-0.032-0.001-0.067-0.015-0.105-0.044c-0.039-0.029-0.083-0.071-0.133-0.127s-0.106-0.132-0.168-0.225
		c-0.06-0.09-0.106-0.171-0.139-0.241c-0.031-0.07-0.053-0.128-0.065-0.174c-0.011-0.046-0.011-0.084,0.002-0.114
		c0.011-0.03,0.034-0.054,0.063-0.074l6.329-4.169l-1.352-2.053c-0.02-0.03-0.031-0.063-0.031-0.097
		c-0.001-0.034,0.01-0.07,0.031-0.105c0.022-0.036,0.055-0.075,0.103-0.121c0.046-0.044,0.106-0.089,0.176-0.136
		c0.072-0.048,0.138-0.084,0.197-0.111c0.061-0.026,0.113-0.043,0.157-0.051c0.044-0.008,0.08-0.004,0.113,0.01
		c0.031,0.015,0.056,0.037,0.076,0.068l3.345,5.076c0.02,0.031,0.03,0.063,0.031,0.097c0.001,0.034-0.01,0.072-0.033,0.111
		c-0.022,0.039-0.058,0.08-0.108,0.124C127.947,44.137,127.887,44.182,127.815,44.229z"/>
	<path d="M131.269,51.091c-0.076,0.037-0.145,0.066-0.206,0.086c-0.061,0.02-0.113,0.03-0.156,0.027
		c-0.043-0.001-0.079-0.01-0.107-0.029c-0.031-0.018-0.053-0.044-0.068-0.076l-1.084-2.206l-6.801,3.344
		c-0.032,0.016-0.065,0.021-0.097,0.018c-0.032-0.005-0.066-0.023-0.099-0.057c-0.034-0.033-0.071-0.081-0.115-0.143
		c-0.042-0.062-0.089-0.143-0.138-0.244c-0.047-0.097-0.083-0.182-0.107-0.255c-0.024-0.074-0.039-0.134-0.045-0.182
		c-0.005-0.049,0-0.085,0.017-0.113c0.016-0.029,0.04-0.051,0.072-0.067l6.801-3.343l-1.084-2.207
		c-0.016-0.031-0.022-0.066-0.02-0.1c0.003-0.033,0.019-0.068,0.044-0.101c0.026-0.032,0.065-0.069,0.117-0.107
		c0.051-0.038,0.115-0.075,0.193-0.113c0.077-0.037,0.146-0.066,0.21-0.085c0.063-0.018,0.117-0.029,0.162-0.031
		c0.045-0.002,0.081,0.006,0.111,0.025c0.029,0.018,0.051,0.043,0.067,0.076l2.682,5.456c0.016,0.032,0.023,0.066,0.02,0.1
		c-0.004,0.034-0.019,0.07-0.047,0.105c-0.028,0.036-0.069,0.072-0.124,0.11C131.412,51.015,131.346,51.053,131.269,51.091z"/>
	<path d="M126.412,60.707c-0.082,0.067-0.151,0.113-0.207,0.134c-0.056,0.022-0.105,0.022-0.149-0.001
		c-0.042-0.024-0.079-0.072-0.117-0.149c-0.036-0.074-0.078-0.177-0.124-0.31c-0.048-0.132-0.081-0.237-0.103-0.318
		c-0.021-0.081-0.032-0.144-0.031-0.19c0-0.045,0.01-0.083,0.029-0.111c0.018-0.028,0.045-0.058,0.076-0.088l1.753-1.421
		l-1.22-3.424l-2.219,0.031c-0.043,0.001-0.082-0.005-0.116-0.015c-0.035-0.011-0.07-0.034-0.103-0.068
		c-0.033-0.033-0.068-0.086-0.103-0.157c-0.034-0.071-0.073-0.167-0.115-0.285c-0.045-0.123-0.074-0.226-0.093-0.308
		c-0.018-0.082-0.017-0.144,0.002-0.187c0.018-0.043,0.055-0.072,0.113-0.092c0.058-0.018,0.14-0.028,0.246-0.027l8.632,0.038
		c0.051,0,0.098,0.01,0.137,0.026c0.04,0.017,0.077,0.05,0.113,0.096c0.035,0.047,0.072,0.11,0.107,0.191s0.076,0.184,0.122,0.313
		c0.049,0.134,0.086,0.249,0.111,0.339c0.026,0.092,0.039,0.167,0.042,0.229c0.002,0.061-0.007,0.112-0.029,0.153
		c-0.021,0.041-0.051,0.078-0.092,0.112L126.412,60.707z M131.9,54.758l-0.002-0.006l-4.609,0.043l1.019,2.862L131.9,54.758z"/>
</g>
<path id="uerer_Ring" fill="none" stroke="#000000" stroke-width="3.5" d="M141.433,75.067c0,36.7-29.75,66.45-66.451,66.45
	c-36.703,0-66.451-29.748-66.451-66.45c0-36.699,29.749-66.451,66.451-66.451C111.683,8.617,141.433,38.368,141.433,75.067z"/>
<path id="uerster_Ring" fill="none" stroke="#000000" stroke-width="3.5" d="M146.749,75.067
	c0,39.637-32.131,71.766-71.767,71.766c-39.639,0-71.769-32.129-71.769-71.766c0-39.636,32.129-71.765,71.769-71.765
	C114.618,3.302,146.749,35.432,146.749,75.067z"/>
<circle cx="131.545" cy="68.613" r="2.583"/>
<circle cx="17.559" cy="68.613" r="2.583"/>
<circle fill="none" cx="74.975" cy="55.434" r="2.01"/>
<path fill="none" d="M87.436,59.763c-0.786,0.786-0.786,2.059,0,2.844c0.784,0.784,2.058,0.784,2.843,0
	c0.784-0.786,0.784-2.06,0-2.844C89.494,58.979,88.22,58.979,87.436,59.763z"/>
<path fill="none" d="M94.607,73.057c-1.112,0-2.011,0.899-2.011,2.011c0.002,1.111,0.901,2.01,2.01,2.011
	c1.112,0,2.012-0.899,2.012-2.012C96.616,73.957,95.717,73.057,94.607,73.057z"/>
<path fill="none" d="M87.433,87.527c-0.783,0.786-0.782,2.059,0,2.844c0.787,0.784,2.06,0.785,2.845,0
	c0.784-0.787,0.785-2.058,0-2.843C89.491,86.741,88.219,86.741,87.433,87.527z"/>
<path fill="none" d="M55.342,73.057c-1.111,0-2.013,0.899-2.01,2.01c0,1.112,0.899,2.011,2.007,2.011
	c1.115,0,2.014-0.898,2.014-2.011C57.353,73.957,56.45,73.057,55.342,73.057z"/>
<path fill="none" d="M59.671,87.526c-0.788,0.787-0.788,2.059,0,2.844c0.786,0.785,2.057,0.785,2.84,0.001
	c0.787-0.788,0.787-2.059,0.002-2.845C61.729,86.741,60.455,86.744,59.671,87.526z"/>
<path fill="none" d="M62.514,62.607c0.785-0.784,0.783-2.06,0-2.843c-0.786-0.786-2.06-0.788-2.843,0
	c-0.786,0.786-0.786,2.057-0.001,2.841C60.456,63.392,61.728,63.391,62.514,62.607z"/>
<path fill="none" d="M74.974,92.688c-1.11,0-2.01,0.902-2.01,2.01c0,1.112,0.9,2.012,2.011,2.011
	c1.11-0.001,2.008-0.898,2.008-2.008C76.983,93.588,76.084,92.688,74.974,92.688z"/>
<path fill="none" d="M57.353,75.066c0-1.109-0.902-2.009-2.011-2.01c-1.111,0-2.013,0.899-2.01,2.01
	c0,1.112,0.899,2.011,2.007,2.011C56.454,77.077,57.353,76.178,57.353,75.066z"/>
<path fill="none" d="M59.671,87.526c-0.788,0.787-0.788,2.059,0,2.844c0.786,0.785,2.057,0.785,2.84,0.001
	c0.787-0.788,0.787-2.059,0.002-2.845C61.729,86.741,60.455,86.744,59.671,87.526z"/>
<path fill="none" d="M62.514,62.607c0.785-0.784,0.783-2.06,0-2.843c-0.786-0.786-2.06-0.788-2.843,0
	c-0.786,0.786-0.786,2.057-0.001,2.841C60.456,63.392,61.728,63.391,62.514,62.607z"/>
<path fill="none" d="M90.279,62.607c0.784-0.786,0.784-2.06,0-2.844c-0.786-0.785-2.06-0.785-2.843,0
	c-0.786,0.786-0.786,2.059,0,2.844C88.219,63.391,89.493,63.391,90.279,62.607z"/>
<circle fill="none" cx="74.975" cy="55.434" r="2.01"/>
<path fill="none" d="M74.974,92.688c-1.11,0-2.01,0.902-2.01,2.01c0,1.112,0.9,2.012,2.011,2.011
	c1.11-0.001,2.008-0.898,2.008-2.008C76.983,93.588,76.084,92.688,74.974,92.688z"/>
<path fill="none" d="M94.607,73.057c-1.112,0-2.011,0.899-2.011,2.011c0.002,1.111,0.901,2.01,2.01,2.011
	c1.112,0,2.012-0.899,2.012-2.012C96.616,73.957,95.717,73.057,94.607,73.057z"/>
<path fill="none" d="M87.433,87.527c-0.783,0.786-0.782,2.059,0,2.844c0.787,0.784,2.06,0.785,2.845,0
	c0.784-0.787,0.785-2.058,0-2.843C89.491,86.741,88.219,86.741,87.433,87.527z"/>
<path d="M83.824,53.698c-11.799-4.887-25.329,0.714-30.218,12.518c-4.887,11.801,0.716,25.329,12.518,30.216
	c11.798,4.888,25.329-0.715,30.219-12.514C101.23,72.115,95.623,58.584,83.824,53.698z M87.436,59.763
	c0.784-0.785,2.058-0.785,2.843,0c0.784,0.784,0.784,2.059,0,2.844c-0.786,0.784-2.06,0.784-2.843,0
	C86.65,61.821,86.65,60.548,87.436,59.763z M74.975,53.424c1.11,0,2.009,0.9,2.009,2.01c0,1.111-0.899,2.01-2.009,2.01
	c-1.111,0-2.011-0.899-2.011-2.01C72.964,54.324,73.864,53.424,74.975,53.424z M59.671,59.763c0.784-0.787,2.057-0.786,2.842,0
	c0.783,0.783,0.785,2.059,0,2.843c-0.786,0.784-2.059,0.786-2.844-0.002C58.885,61.82,58.886,60.549,59.671,59.763z M53.332,75.066
	c-0.002-1.11,0.899-2.01,2.01-2.01c1.109,0,2.011,0.9,2.011,2.01c0,1.112-0.899,2.011-2.014,2.011
	C54.231,77.077,53.332,76.178,53.332,75.066z M62.512,90.371c-0.785,0.784-2.055,0.784-2.841-0.001
	c-0.787-0.785-0.787-2.058,0-2.844c0.784-0.782,2.059-0.786,2.843,0C63.298,88.313,63.298,89.583,62.512,90.371z M74.975,96.709
	c-1.111,0.001-2.011-0.898-2.011-2.011c0-1.107,0.9-2.01,2.01-2.01c1.111,0,2.009,0.899,2.009,2.013
	C76.983,95.811,76.084,96.708,74.975,96.709z M90.278,90.371c-0.785,0.785-2.059,0.784-2.845,0c-0.782-0.786-0.783-2.059,0-2.844
	c0.787-0.786,2.058-0.786,2.845,0.001C91.063,88.313,91.063,89.585,90.278,90.371z M95.042,83.345
	c-0.899,2.188-7.395,1.051-9.063,2.728c-1.661,1.671-0.494,8.129-2.668,9.037c-2.184,0.912-5.972-4.482-8.337-4.478
	c-2.356,0.007-6.099,5.399-8.278,4.503c-2.187-0.9-1.05-7.393-2.728-9.063c-1.671-1.662-8.13-0.495-9.036-2.67
	c-0.912-2.183,4.484-5.971,4.477-8.336c-0.006-2.355-5.4-6.1-4.502-8.279c0.9-2.187,7.392-1.049,9.062-2.726
	c1.662-1.67,0.496-8.132,2.67-9.04c2.183-0.912,5.97,4.487,8.335,4.48c2.357-0.006,6.102-5.399,8.279-4.503
	c2.188,0.901,1.05,7.394,2.727,9.063c1.669,1.662,8.13,0.493,9.038,2.668c0.912,2.182-4.486,5.971-4.479,8.337
	C90.546,77.424,95.939,81.164,95.042,83.345z M94.606,77.078c-1.109-0.001-2.008-0.899-2.01-2.011c0-1.111,0.899-2.01,2.011-2.011
	c1.111,0,2.009,0.9,2.011,2.01C96.618,76.178,95.717,77.078,94.606,77.078z"/>
<path fill="none" d="M95.019,66.729c-0.908-2.175-7.37-1.006-9.039-2.668c-1.677-1.669-0.538-8.163-2.726-9.063
	c-2.178-0.896-5.922,4.498-8.279,4.503c-2.366,0.007-6.153-5.392-8.335-4.48c-2.175,0.908-1.009,7.369-2.67,9.04
	c-1.669,1.677-8.162,0.539-9.062,2.726c-0.896,2.179,4.497,5.924,4.502,8.279c0.007,2.366-5.389,6.153-4.478,8.336
	c0.907,2.175,7.366,1.008,9.037,2.67c1.677,1.67,0.541,8.162,2.728,9.063c2.179,0.896,5.922-4.497,8.279-4.503
	c2.366-0.005,6.153,5.39,8.337,4.478c2.174-0.908,1.007-7.366,2.667-9.037c1.669-1.677,8.165-0.54,9.064-2.728
	c0.896-2.181-4.498-5.921-4.505-8.278C90.532,72.7,95.93,68.911,95.019,66.729z M85.231,79.316
	c-2.346,5.664-8.842,8.352-14.505,6.007c-5.665-2.347-8.354-8.841-6.009-14.505c2.347-5.666,8.842-8.354,14.505-6.008
	S87.577,73.65,85.231,79.316z"/>
<path fill="none" d="M79.223,64.81c-5.665-2.346-12.159,0.343-14.505,6.008c-2.347,5.665,0.344,12.158,6.009,14.505
	c5.664,2.346,12.159-0.344,14.505-6.007C87.577,73.65,84.886,67.155,79.223,64.81z M68.23,73.526
	c0.171-0.745,0.912-1.211,1.656-1.038c0.748,0.167,1.212,0.91,1.041,1.655c-0.169,0.745-0.912,1.21-1.655,1.04
	C68.528,75.013,68.059,74.271,68.23,73.526z M71.51,79.597c-0.597,0.476-1.469,0.38-1.945-0.217
	c-0.476-0.599-0.378-1.467,0.22-1.943c0.597-0.479,1.466-0.379,1.943,0.218C72.205,78.25,72.107,79.123,71.51,79.597z
	 M71.327,70.681c-0.331-0.688-0.043-1.516,0.646-1.846c0.687-0.333,1.516-0.043,1.844,0.645c0.335,0.689,0.045,1.516-0.645,1.848
	C72.486,71.657,71.658,71.369,71.327,70.681z M74.974,81.983c-0.764,0-1.383-0.62-1.383-1.384s0.62-1.383,1.383-1.383
	c0.764,0,1.383,0.62,1.383,1.383C76.357,81.363,75.737,81.983,74.974,81.983z M74.974,76.45c-0.764,0-1.383-0.619-1.383-1.383
	c0-0.763,0.62-1.383,1.383-1.383c0.764,0,1.383,0.621,1.383,1.383C76.357,75.831,75.737,76.45,74.974,76.45z M76.774,71.327
	c-0.687-0.332-0.976-1.158-0.645-1.848c0.332-0.687,1.158-0.978,1.847-0.645c0.687,0.33,0.977,1.157,0.646,1.844
	C78.29,71.369,77.463,71.657,76.774,71.327z M80.382,79.38c-0.476,0.597-1.346,0.693-1.943,0.217
	c-0.598-0.475-0.696-1.346-0.219-1.943c0.477-0.598,1.345-0.694,1.944-0.22C80.759,77.912,80.859,78.781,80.382,79.38z
	 M80.677,75.183c-0.746,0.172-1.485-0.295-1.657-1.039c-0.169-0.746,0.297-1.486,1.041-1.657c0.744-0.169,1.487,0.296,1.656,1.042
	C81.889,74.271,81.421,75.013,80.677,75.183z"/>
<circle cx="74.974" cy="75.067" r="1.384"/>
<circle cx="74.974" cy="80.6" r="1.384"/>
<path d="M80.163,77.434c-0.598-0.475-1.468-0.378-1.944,0.22s-0.378,1.469,0.219,1.943c0.597,0.477,1.467,0.38,1.943-0.217
	C80.859,78.781,80.759,77.912,80.163,77.434z"/>
<path d="M80.061,72.486c-0.745,0.17-1.21,0.912-1.041,1.657c0.172,0.745,0.912,1.21,1.657,1.04c0.744-0.17,1.211-0.912,1.04-1.655
	C81.548,72.782,80.805,72.317,80.061,72.486z"/>
<path d="M78.622,70.679c0.331-0.687,0.041-1.514-0.646-1.844c-0.688-0.334-1.515-0.042-1.847,0.645
	c-0.332,0.689-0.042,1.516,0.645,1.848C77.463,71.657,78.29,71.369,78.622,70.679z"/>
<path d="M73.817,69.479c-0.329-0.687-1.157-0.976-1.844-0.645c-0.689,0.33-0.976,1.157-0.646,1.846
	c0.332,0.688,1.158,0.976,1.846,0.646C73.862,70.995,74.152,70.169,73.817,69.479z"/>
<path d="M70.927,74.143c0.171-0.747-0.293-1.487-1.041-1.655c-0.745-0.173-1.486,0.294-1.656,1.038
	c-0.171,0.746,0.297,1.486,1.042,1.656C70.016,75.354,70.758,74.887,70.927,74.143z"/>
<path d="M69.786,77.436c-0.599,0.477-0.696,1.346-0.22,1.944c0.476,0.597,1.348,0.692,1.945,0.216
	c0.598-0.474,0.695-1.346,0.219-1.941C71.252,77.057,70.382,76.956,69.786,77.436z"/>
<text transform="matrix(1 0 0 1 161.0674 35.4033)" font-family="'Nyala-Regular'" font-size="46">Department of Computer Science and Engineering</text>
</svg>
