<svg xmlns="http://www.w3.org/2000/svg" viewBox="0 0 50 50">
    <path d="M 25 2 C 12.297 2 2 12.297 2 25 C 2 37.703 12.297 48 25 48 C 37.703 48 48 37.703 48 25 C 48 12.297 37.703 2 25 2 z M 18.419922 16 L 25.292969 16 C 28.760969 16 31.03125 18.120281 31.03125 21.363281 C 31.03125 23.870281 29.671062 25.816344 27.414062 26.527344 L 31.580078 34 L 28.947266 34 L 25.09375 26.876953 L 20.666016 26.876953 L 20.666016 34 L 18.419922 34 L 18.419922 16 z M 20.666016 17.996094 L 20.666016 24.882812 L 25.09375 24.882812 C 27.40075 24.881813 28.710938 23.647453 28.710938 21.439453 C 28.710938 19.281453 27.314141 17.996094 24.994141 17.996094 L 20.666016 17.996094 z"></path>
</svg>