<svg width="480" height="480" xmlns="http://www.w3.org/2000/svg" xmlns:svg="http://www.w3.org/2000/svg">
 <g>
  <title>Layer 1</title>
  <path id="svg_9" stroke="null" fill="#FFFFFF" d="m15.52626,465.47137l31.71736,-115.79068c-19.56734,-33.8837 -29.85719,-72.33542 -29.84545,-111.71713c0.0589,-123.20798 100.32059,-223.44609 223.5402,-223.44609c59.79677,0.02358 115.90849,23.29942 158.11592,65.53039c42.19562,42.24272 65.43616,98.37793 65.41257,158.09221c-0.04706,123.20798 -100.33231,223.45782 -223.52849,223.45782c-0.01172,0 0,0 0,0l-0.0941,0c-37.40384,-0.01172 -74.172,-9.39508 -106.81944,-27.2081l-118.49857,31.08157z"/>
  <g id="svg_10" stroke="null">
   <path id="svg_11" stroke="null" fill="#FFFFFF" d="m15.52626,471.35806c-1.55412,0 -3.06109,-0.61221 -4.17952,-1.74246c-1.47174,-1.49524 -2.04862,-3.67328 -1.49522,-5.68652l31.06974,-113.44785c-19.26109,-34.21329 -29.4215,-73.06531 -29.39801,-112.50592c0.04716,-126.46916 102.95782,-229.3445 229.41525,-229.3445c61.33904,0.02358 118.96947,23.91162 162.28355,67.26103c43.31406,43.36115 67.15509,100.97984 67.13147,162.24833c-0.04706,126.45734 -102.96957,229.34451 -229.41515,229.34451c-37.5451,-0.01184 -74.68996,-9.27737 -107.6553,-26.80792l-116.26159,30.48108c-0.49449,0.1413 -0.98899,0.20023 -1.49522,0.20023z"/>
   <path id="svg_12" stroke="null" fill="#000000" d="m240.93837,14.51747c59.79677,0.02358 115.90849,23.29942 158.11592,65.53039c42.19562,42.24272 65.43616,98.37793 65.41257,158.0923c-0.04706,123.20789 -100.33231,223.45786 -223.52849,223.45786l-0.0941,0c-37.40393,-0.01184 -74.172,-9.3952 -106.81944,-27.20822l-118.49857,31.08157l31.71736,-115.79068c-19.56734,-33.8837 -29.85719,-72.33542 -29.84545,-111.71713c0.0589,-123.20798 100.32059,-223.44609 223.54032,-223.44609m0,447.08043c0,0 0,0 0,0c0,0 0,0 0,0m0,0c0,0 0,0 0,0c0,0 0,0 0,0m0,-458.85376c0,0 0,0 0,0c-129.69502,0 -235.25476,105.51257 -235.31366,235.21942c-0.01174,39.64081 9.99554,78.70465 28.97416,113.28293l-30.43406,111.12845c-1.10669,4.06183 0.02358,8.39447 2.99044,11.38486c2.23696,2.26053 5.26273,3.49667 8.37088,3.49667c1.00073,0 2.00146,-0.12946 2.99045,-0.38855l114.04821,-29.90427c33.29497,17.28333 70.61642,26.40759 108.27936,26.41943c129.78925,0 235.34888,-105.52441 235.40778,-235.23117c0.0235,-62.85785 -24.42969,-121.95992 -68.85049,-166.41602c-44.44437,-44.46795 -103.55817,-68.96818 -166.46318,-68.99176l0,0l0.00012,0z"/>
  </g>
  <path id="svg_13" stroke="null" fill="#000000" d="m372.35242,106.72617c-35.08463,-35.10807 -81.71878,-54.45164 -131.35513,-54.46338c-102.47507,0 -185.81849,83.30809 -185.86554,185.71252c-0.01184,35.09634 9.8071,69.26248 28.40902,98.84882l4.42677,7.02872l-18.77843,68.53256l70.32211,-18.43695l6.79318,4.0264c28.515,16.93011 61.22133,25.87784 94.56335,25.88959l0.07063,0c102.40456,0 185.74797,-83.31982 185.78328,-185.73611c0.01175,-49.6245 -19.28476,-96.29398 -54.36923,-131.40206l0,-0.0001z"/>
  <path id="svg_14" stroke="null" fill-rule="evenodd" clip-rule="evenodd" fill="#FFFFFF" d="m185.06216,144.55396c-4.17952,-9.30096 -8.5827,-9.4893 -12.57388,-9.65416c-3.26117,-0.1413 -6.98163,-0.12955 -10.70197,-0.12955c-3.72034,0 -9.77187,1.40109 -14.89322,6.99335c-5.12144,5.59236 -19.5555,19.09642 -19.5555,46.57536c0,27.47894 20.01466,54.03955 22.80493,57.75999c2.79025,3.72032 38.64009,61.91591 95.41107,84.30879c47.1757,18.60184 56.78273,14.90509 67.0255,13.97491c10.24289,-0.93008 33.04782,-13.50397 37.69824,-26.54886c4.65048,-13.0448 4.65048,-24.21768 3.26117,-26.54886c-1.40097,-2.33109 -5.12131,-3.72034 -10.70181,-6.52243s-33.04785,-16.30606 -38.16919,-18.16626c-5.12146,-1.86017 -8.8418,-2.79025 -12.57397,2.80209c-3.72034,5.58054 -14.4223,18.16626 -17.6835,21.8866c-3.26126,3.73218 -6.52243,4.20309 -12.10294,1.401c-5.58063,-2.802 -23.57027,-8.68866 -44.91527,-27.71436c-16.60048,-14.79909 -27.80867,-33.08313 -31.06985,-38.67538c-3.26126,-5.58063 -0.3532,-8.60638 2.44879,-11.39665c2.50778,-2.50769 5.58063,-6.52245 8.38263,-9.7836c2.79034,-3.26118 3.72044,-5.59238 5.5806,-9.31273c1.86018,-3.73216 0.9301,-6.99335 -0.4709,-9.78362c-1.37752,-2.80209 -12.23251,-30.42232 -17.20093,-41.46565z"/>
 </g>

</svg>